<svg xmlns="http://www.w3.org/2000/svg" width="1200" height="400" viewBox="0 0 1200 400">
<rect width="100%" height="100%" fill="#1A1A2E"/>

<defs>
<filter id="glow">
<feGaussianBlur stdDeviation="1.8" result="blur"/>
<feMerge>
<feMergeNode in="blur"/>
<feMergeNode in="SourceGraphic"/>
</feMerge>
</filter>
</defs>

<rect x="120.00" y="158.92" width="4.50" height="82.17" rx="1.5" ry="1.5" fill="#1ABC9C" opacity="0.82" filter="url(#glow)" />
<rect x="126.00" y="151.65" width="4.50" height="96.70" rx="1.5" ry="1.5" fill="#1ABC9C" opacity="0.83" filter="url(#glow)" />
<rect x="132.00" y="145.26" width="4.50" height="109.48" rx="1.5" ry="1.5" fill="#1ABC9C" opacity="0.83" filter="url(#glow)" />
<rect x="138.00" y="141.08" width="4.50" height="117.85" rx="1.5" ry="1.5" fill="#1ABC9C" opacity="0.83" filter="url(#glow)" />
<rect x="144.00" y="131.54" width="4.50" height="136.92" rx="1.5" ry="1.5" fill="#1ABC9C" opacity="0.85" filter="url(#glow)" />
<rect x="150.00" y="124.55" width="4.50" height="150.90" rx="1.5" ry="1.5" fill="#1ABC9C" opacity="0.86" filter="url(#glow)" />
<rect x="156.00" y="123.25" width="4.50" height="153.50" rx="1.5" ry="1.5" fill="#1ABC9C" opacity="0.85" filter="url(#glow)" />
<rect x="162.00" y="122.95" width="4.50" height="154.09" rx="1.5" ry="1.5" fill="#1ABC9C" opacity="0.85" filter="url(#glow)" />
<rect x="168.00" y="113.62" width="4.50" height="172.76" rx="1.5" ry="1.5" fill="#1abb9b" opacity="0.87" filter="url(#glow)" />
<rect x="174.00" y="109.49" width="4.50" height="181.02" rx="1.5" ry="1.5" fill="#1fb999" opacity="0.88" filter="url(#glow)" />
<rect x="180.00" y="101.99" width="4.50" height="196.02" rx="1.5" ry="1.5" fill="#25b797" opacity="0.90" filter="url(#glow)" />
<rect x="186.00" y="108.60" width="4.50" height="182.81" rx="1.5" ry="1.5" fill="#2ab495" opacity="0.90" filter="url(#glow)" />
<rect x="192.00" y="118.79" width="4.50" height="162.43" rx="1.5" ry="1.5" fill="#30b293" opacity="0.88" filter="url(#glow)" />
<rect x="198.00" y="134.91" width="4.50" height="130.17" rx="1.5" ry="1.5" fill="#36af90" opacity="0.85" filter="url(#glow)" />
<rect x="204.00" y="142.85" width="4.50" height="114.30" rx="1.5" ry="1.5" fill="#3bad8e" opacity="0.84" filter="url(#glow)" />
<rect x="210.00" y="153.24" width="4.50" height="93.52" rx="1.5" ry="1.5" fill="#41ab8c" opacity="0.83" filter="url(#glow)" />
<rect x="216.00" y="156.85" width="4.50" height="86.31" rx="1.5" ry="1.5" fill="#46a88a" opacity="0.83" filter="url(#glow)" />
<rect x="222.00" y="163.93" width="4.50" height="72.14" rx="1.5" ry="1.5" fill="#4ca687" opacity="0.82" filter="url(#glow)" />
<rect x="228.00" y="166.28" width="4.50" height="67.43" rx="1.5" ry="1.5" fill="#51a385" opacity="0.83" filter="url(#glow)" />
<rect x="234.00" y="170.99" width="4.50" height="58.02" rx="1.5" ry="1.5" fill="#57a183" opacity="0.83" filter="url(#glow)" />
<rect x="240.00" y="175.25" width="4.50" height="49.50" rx="1.5" ry="1.5" fill="#5c9f81" opacity="0.83" filter="url(#glow)" />
<rect x="246.00" y="178.71" width="4.50" height="42.57" rx="1.5" ry="1.5" fill="#629c7f" opacity="0.83" filter="url(#glow)" />
<rect x="252.00" y="180.71" width="4.50" height="38.59" rx="1.5" ry="1.5" fill="#689a7c" opacity="0.83" filter="url(#glow)" />
<rect x="258.00" y="181.70" width="4.50" height="36.61" rx="1.5" ry="1.5" fill="#6d977a" opacity="0.84" filter="url(#glow)" />
<rect x="264.00" y="180.05" width="4.50" height="39.90" rx="1.5" ry="1.5" fill="#739578" opacity="0.85" filter="url(#glow)" />
<rect x="270.00" y="181.06" width="4.50" height="37.88" rx="1.5" ry="1.5" fill="#789376" opacity="0.84" filter="url(#glow)" />
<rect x="276.00" y="177.79" width="4.50" height="44.43" rx="1.5" ry="1.5" fill="#7e9074" opacity="0.85" filter="url(#glow)" />
<rect x="282.00" y="175.85" width="4.50" height="48.30" rx="1.5" ry="1.5" fill="#838e71" opacity="0.84" filter="url(#glow)" />
<rect x="288.00" y="171.47" width="4.50" height="57.07" rx="1.5" ry="1.5" fill="#898b6f" opacity="0.85" filter="url(#glow)" />
<rect x="294.00" y="167.86" width="4.50" height="64.28" rx="1.5" ry="1.5" fill="#8e896d" opacity="0.84" filter="url(#glow)" />
<rect x="300.00" y="166.81" width="4.50" height="66.37" rx="1.5" ry="1.5" fill="#94876b" opacity="0.82" filter="url(#glow)" />
<rect x="306.00" y="163.97" width="4.50" height="72.06" rx="1.5" ry="1.5" fill="#998469" opacity="0.82" filter="url(#glow)" />
<rect x="312.00" y="160.72" width="4.50" height="78.56" rx="1.5" ry="1.5" fill="#9f8266" opacity="0.81" filter="url(#glow)" />
<rect x="318.00" y="162.65" width="4.50" height="74.70" rx="1.5" ry="1.5" fill="#a57f64" opacity="0.79" filter="url(#glow)" />
<rect x="324.00" y="162.18" width="4.50" height="75.63" rx="1.5" ry="1.5" fill="#aa7d62" opacity="0.78" filter="url(#glow)" />
<rect x="330.00" y="148.40" width="4.50" height="103.21" rx="1.5" ry="1.5" fill="#b07b60" opacity="0.81" filter="url(#glow)" />
<rect x="336.00" y="129.41" width="4.50" height="141.18" rx="1.5" ry="1.5" fill="#b5785e" opacity="0.85" filter="url(#glow)" />
<rect x="342.00" y="112.70" width="4.50" height="174.60" rx="1.5" ry="1.5" fill="#bb765b" opacity="0.88" filter="url(#glow)" />
<rect x="348.00" y="100.14" width="4.50" height="199.73" rx="1.5" ry="1.5" fill="#c07359" opacity="0.91" filter="url(#glow)" />
<rect x="354.00" y="89.67" width="4.50" height="220.66" rx="1.5" ry="1.5" fill="#c67157" opacity="0.93" filter="url(#glow)" />
<rect x="360.00" y="133.77" width="4.50" height="132.45" rx="1.5" ry="1.5" fill="#cb6f55" opacity="0.89" filter="url(#glow)" />
<rect x="366.00" y="134.43" width="4.50" height="131.13" rx="1.5" ry="1.5" fill="#d16c52" opacity="0.87" filter="url(#glow)" />
<rect x="372.00" y="137.18" width="4.50" height="125.64" rx="1.5" ry="1.5" fill="#d76a50" opacity="0.85" filter="url(#glow)" />
<rect x="378.00" y="143.75" width="4.50" height="112.50" rx="1.5" ry="1.5" fill="#dc674e" opacity="0.82" filter="url(#glow)" />
<rect x="384.00" y="148.07" width="4.50" height="103.85" rx="1.5" ry="1.5" fill="#e2654c" opacity="0.81" filter="url(#glow)" />
<rect x="390.00" y="147.52" width="4.50" height="104.95" rx="1.5" ry="1.5" fill="#e7634a" opacity="0.81" filter="url(#glow)" />
<rect x="396.00" y="142.92" width="4.50" height="114.16" rx="1.5" ry="1.5" fill="#E8634A" opacity="0.82" filter="url(#glow)" />
<rect x="402.00" y="141.20" width="4.50" height="117.61" rx="1.5" ry="1.5" fill="#E8634A" opacity="0.83" filter="url(#glow)" />
<rect x="408.00" y="138.14" width="4.50" height="123.73" rx="1.5" ry="1.5" fill="#E8634A" opacity="0.85" filter="url(#glow)" />
<rect x="414.00" y="139.65" width="4.50" height="120.69" rx="1.5" ry="1.5" fill="#E8634A" opacity="0.86" filter="url(#glow)" />
<rect x="420.00" y="139.46" width="4.50" height="121.08" rx="1.5" ry="1.5" fill="#E8634A" opacity="0.88" filter="url(#glow)" />
<rect x="426.00" y="149.76" width="4.50" height="100.49" rx="1.5" ry="1.5" fill="#E8634A" opacity="0.86" filter="url(#glow)" />
<rect x="432.00" y="153.18" width="4.50" height="93.65" rx="1.5" ry="1.5" fill="#E8634A" opacity="0.86" filter="url(#glow)" />
<rect x="438.00" y="156.54" width="4.50" height="86.93" rx="1.5" ry="1.5" fill="#E8634A" opacity="0.86" filter="url(#glow)" />
<rect x="444.00" y="160.14" width="4.50" height="79.72" rx="1.5" ry="1.5" fill="#E8634A" opacity="0.85" filter="url(#glow)" />
<rect x="450.00" y="155.99" width="4.50" height="88.03" rx="1.5" ry="1.5" fill="#E8634A" opacity="0.87" filter="url(#glow)" />
<rect x="456.00" y="154.57" width="4.50" height="90.87" rx="1.5" ry="1.5" fill="#E8634A" opacity="0.87" filter="url(#glow)" />
<rect x="462.00" y="147.46" width="4.50" height="105.08" rx="1.5" ry="1.5" fill="#E8634A" opacity="0.89" filter="url(#glow)" />
<rect x="468.00" y="144.40" width="4.50" height="111.19" rx="1.5" ry="1.5" fill="#E8634A" opacity="0.89" filter="url(#glow)" />
<rect x="474.00" y="140.83" width="4.50" height="118.34" rx="1.5" ry="1.5" fill="#E8634A" opacity="0.88" filter="url(#glow)" />
<rect x="480.00" y="143.23" width="4.50" height="113.54" rx="1.5" ry="1.5" fill="#E8634A" opacity="0.85" filter="url(#glow)" />
<rect x="486.00" y="138.46" width="4.50" height="123.07" rx="1.5" ry="1.5" fill="#e86349" opacity="0.86" filter="url(#glow)" />
<rect x="492.00" y="132.53" width="4.50" height="134.93" rx="1.5" ry="1.5" fill="#e86448" opacity="0.86" filter="url(#glow)" />
<rect x="498.00" y="123.50" width="4.50" height="153.01" rx="1.5" ry="1.5" fill="#e86646" opacity="0.88" filter="url(#glow)" />
<rect x="504.00" y="120.09" width="4.50" height="159.82" rx="1.5" ry="1.5" fill="#e86745" opacity="0.88" filter="url(#glow)" />
<rect x="510.00" y="121.21" width="4.50" height="157.59" rx="1.5" ry="1.5" fill="#e96943" opacity="0.88" filter="url(#glow)" />
<rect x="516.00" y="130.42" width="4.50" height="139.15" rx="1.5" ry="1.5" fill="#e96a42" opacity="0.86" filter="url(#glow)" />
<rect x="522.00" y="134.86" width="4.50" height="130.29" rx="1.5" ry="1.5" fill="#e96c40" opacity="0.85" filter="url(#glow)" />
<rect x="528.00" y="135.82" width="4.50" height="128.35" rx="1.5" ry="1.5" fill="#ea6d3f" opacity="0.86" filter="url(#glow)" />
<rect x="534.00" y="143.69" width="4.50" height="112.62" rx="1.5" ry="1.5" fill="#ea6f3d" opacity="0.85" filter="url(#glow)" />
<rect x="540.00" y="150.20" width="4.50" height="99.61" rx="1.5" ry="1.5" fill="#ea703c" opacity="0.84" filter="url(#glow)" />
<rect x="546.00" y="157.70" width="4.50" height="84.59" rx="1.5" ry="1.5" fill="#ea723a" opacity="0.83" filter="url(#glow)" />
<rect x="552.00" y="160.68" width="4.50" height="78.64" rx="1.5" ry="1.5" fill="#eb7339" opacity="0.83" filter="url(#glow)" />
<rect x="558.00" y="163.12" width="4.50" height="73.76" rx="1.5" ry="1.5" fill="#eb7537" opacity="0.83" filter="url(#glow)" />
<rect x="564.00" y="165.30" width="4.50" height="69.40" rx="1.5" ry="1.5" fill="#eb7736" opacity="0.83" filter="url(#glow)" />
<rect x="570.00" y="168.95" width="4.50" height="62.10" rx="1.5" ry="1.5" fill="#ec7834" opacity="0.81" filter="url(#glow)" />
<rect x="576.00" y="166.42" width="4.50" height="67.15" rx="1.5" ry="1.5" fill="#ec7a33" opacity="0.82" filter="url(#glow)" />
<rect x="582.00" y="163.79" width="4.50" height="72.42" rx="1.5" ry="1.5" fill="#ec7b31" opacity="0.82" filter="url(#glow)" />
<rect x="588.00" y="160.38" width="4.50" height="79.23" rx="1.5" ry="1.5" fill="#ed7d30" opacity="0.82" filter="url(#glow)" />
<rect x="594.00" y="154.82" width="4.50" height="90.36" rx="1.5" ry="1.5" fill="#ed7e2e" opacity="0.83" filter="url(#glow)" />
<rect x="600.00" y="156.80" width="4.50" height="86.41" rx="1.5" ry="1.5" fill="#ed802d" opacity="0.86" filter="url(#glow)" />
<rect x="606.00" y="152.46" width="4.50" height="95.08" rx="1.5" ry="1.5" fill="#ed812b" opacity="0.86" filter="url(#glow)" />
<rect x="612.00" y="153.21" width="4.50" height="93.58" rx="1.5" ry="1.5" fill="#ee832a" opacity="0.85" filter="url(#glow)" />
<rect x="618.00" y="156.15" width="4.50" height="87.71" rx="1.5" ry="1.5" fill="#ee8428" opacity="0.82" filter="url(#glow)" />
<rect x="624.00" y="149.80" width="4.50" height="100.41" rx="1.5" ry="1.5" fill="#ee8627" opacity="0.84" filter="url(#glow)" />
<rect x="630.00" y="142.78" width="4.50" height="114.44" rx="1.5" ry="1.5" fill="#ef8725" opacity="0.85" filter="url(#glow)" />
<rect x="636.00" y="143.64" width="4.50" height="112.71" rx="1.5" ry="1.5" fill="#ef8924" opacity="0.84" filter="url(#glow)" />
<rect x="642.00" y="137.94" width="4.50" height="124.12" rx="1.5" ry="1.5" fill="#ef8b22" opacity="0.85" filter="url(#glow)" />
<rect x="648.00" y="137.68" width="4.50" height="124.64" rx="1.5" ry="1.5" fill="#f08c21" opacity="0.84" filter="url(#glow)" />
<rect x="654.00" y="133.95" width="4.50" height="132.09" rx="1.5" ry="1.5" fill="#f08e1f" opacity="0.84" filter="url(#glow)" />
<rect x="660.00" y="138.72" width="4.50" height="122.56" rx="1.5" ry="1.5" fill="#f08f1e" opacity="0.82" filter="url(#glow)" />
<rect x="666.00" y="138.62" width="4.50" height="122.77" rx="1.5" ry="1.5" fill="#f0911c" opacity="0.82" filter="url(#glow)" />
<rect x="672.00" y="142.12" width="4.50" height="115.76" rx="1.5" ry="1.5" fill="#f1921b" opacity="0.81" filter="url(#glow)" />
<rect x="678.00" y="127.18" width="4.50" height="145.65" rx="1.5" ry="1.5" fill="#f19419" opacity="0.84" filter="url(#glow)" />
<rect x="684.00" y="120.46" width="4.50" height="159.08" rx="1.5" ry="1.5" fill="#f19518" opacity="0.85" filter="url(#glow)" />
<rect x="690.00" y="119.53" width="4.50" height="160.94" rx="1.5" ry="1.5" fill="#f29716" opacity="0.85" filter="url(#glow)" />
<rect x="696.00" y="129.85" width="4.50" height="140.30" rx="1.5" ry="1.5" fill="#f29815" opacity="0.82" filter="url(#glow)" />
<rect x="702.00" y="126.89" width="4.50" height="146.22" rx="1.5" ry="1.5" fill="#f29a13" opacity="0.83" filter="url(#glow)" />
<rect x="708.00" y="127.10" width="4.50" height="145.79" rx="1.5" ry="1.5" fill="#f29b12" opacity="0.83" filter="url(#glow)" />
<rect x="714.00" y="123.02" width="4.50" height="153.97" rx="1.5" ry="1.5" fill="#F39C12" opacity="0.84" filter="url(#glow)" />
<rect x="720.00" y="124.09" width="4.50" height="151.82" rx="1.5" ry="1.5" fill="#F39C12" opacity="0.83" filter="url(#glow)" />
<rect x="726.00" y="114.59" width="4.50" height="170.82" rx="1.5" ry="1.5" fill="#F39C12" opacity="0.86" filter="url(#glow)" />
<rect x="732.00" y="109.24" width="4.50" height="181.53" rx="1.5" ry="1.5" fill="#F39C12" opacity="0.87" filter="url(#glow)" />
<rect x="738.00" y="111.82" width="4.50" height="176.36" rx="1.5" ry="1.5" fill="#F39C12" opacity="0.87" filter="url(#glow)" />
<rect x="744.00" y="119.38" width="4.50" height="161.24" rx="1.5" ry="1.5" fill="#F39C12" opacity="0.85" filter="url(#glow)" />
<rect x="750.00" y="127.96" width="4.50" height="144.09" rx="1.5" ry="1.5" fill="#F39C12" opacity="0.83" filter="url(#glow)" />
<rect x="756.00" y="131.68" width="4.50" height="136.64" rx="1.5" ry="1.5" fill="#F39C12" opacity="0.83" filter="url(#glow)" />
<rect x="762.00" y="130.89" width="4.50" height="138.22" rx="1.5" ry="1.5" fill="#F39C12" opacity="0.84" filter="url(#glow)" />
<rect x="768.00" y="127.54" width="4.50" height="144.93" rx="1.5" ry="1.5" fill="#F39C12" opacity="0.85" filter="url(#glow)" />
<rect x="774.00" y="130.36" width="4.50" height="139.29" rx="1.5" ry="1.5" fill="#F39C12" opacity="0.85" filter="url(#glow)" />
<rect x="780.00" y="136.84" width="4.50" height="126.33" rx="1.5" ry="1.5" fill="#F39C12" opacity="0.84" filter="url(#glow)" />
<rect x="786.00" y="138.06" width="4.50" height="123.89" rx="1.5" ry="1.5" fill="#F39C12" opacity="0.84" filter="url(#glow)" />
<rect x="792.00" y="142.22" width="4.50" height="115.56" rx="1.5" ry="1.5" fill="#F39C12" opacity="0.84" filter="url(#glow)" />
<rect x="798.00" y="150.01" width="4.50" height="99.98" rx="1.5" ry="1.5" fill="#F39C12" opacity="0.82" filter="url(#glow)" />
<rect x="804.00" y="160.72" width="4.50" height="78.57" rx="1.5" ry="1.5" fill="#f29c12" opacity="0.79" filter="url(#glow)" />
<rect x="810.00" y="162.66" width="4.50" height="74.68" rx="1.5" ry="1.5" fill="#ed9d14" opacity="0.79" filter="url(#glow)" />
<rect x="816.00" y="163.09" width="4.50" height="73.81" rx="1.5" ry="1.5" fill="#e89e17" opacity="0.80" filter="url(#glow)" />
<rect x="822.00" y="163.76" width="4.50" height="72.48" rx="1.5" ry="1.5" fill="#e29f19" opacity="0.81" filter="url(#glow)" />
<rect x="828.00" y="160.03" width="4.50" height="79.94" rx="1.5" ry="1.5" fill="#dda11c" opacity="0.84" filter="url(#glow)" />
<rect x="834.00" y="158.79" width="4.50" height="82.43" rx="1.5" ry="1.5" fill="#d8a21e" opacity="0.86" filter="url(#glow)" />
<rect x="840.00" y="152.12" width="4.50" height="95.76" rx="1.5" ry="1.5" fill="#d2a321" opacity="0.87" filter="url(#glow)" />
<rect x="846.00" y="134.71" width="4.50" height="130.58" rx="1.5" ry="1.5" fill="#cda524" opacity="0.88" filter="url(#glow)" />
<rect x="852.00" y="123.91" width="4.50" height="152.19" rx="1.5" ry="1.5" fill="#c8a626" opacity="0.88" filter="url(#glow)" />
<rect x="858.00" y="114.21" width="4.50" height="171.57" rx="1.5" ry="1.5" fill="#c2a729" opacity="0.87" filter="url(#glow)" />
<rect x="864.00" y="117.44" width="4.50" height="165.13" rx="1.5" ry="1.5" fill="#bda92b" opacity="0.85" filter="url(#glow)" />
<rect x="870.00" y="113.01" width="4.50" height="173.98" rx="1.5" ry="1.5" fill="#b8aa2e" opacity="0.85" filter="url(#glow)" />
<rect x="876.00" y="112.30" width="4.50" height="175.39" rx="1.5" ry="1.5" fill="#b3ab30" opacity="0.85" filter="url(#glow)" />
<rect x="882.00" y="110.71" width="4.50" height="178.59" rx="1.5" ry="1.5" fill="#adac33" opacity="0.86" filter="url(#glow)" />
<rect x="888.00" y="116.31" width="4.50" height="167.38" rx="1.5" ry="1.5" fill="#a8ae35" opacity="0.86" filter="url(#glow)" />
<rect x="894.00" y="132.60" width="4.50" height="134.80" rx="1.5" ry="1.5" fill="#a3af38" opacity="0.83" filter="url(#glow)" />
<rect x="900.00" y="145.36" width="4.50" height="109.27" rx="1.5" ry="1.5" fill="#9db03b" opacity="0.82" filter="url(#glow)" />
<rect x="906.00" y="154.54" width="4.50" height="90.91" rx="1.5" ry="1.5" fill="#98b23d" opacity="0.82" filter="url(#glow)" />
<rect x="912.00" y="162.46" width="4.50" height="75.08" rx="1.5" ry="1.5" fill="#93b340" opacity="0.84" filter="url(#glow)" />
<rect x="918.00" y="162.37" width="4.50" height="75.26" rx="1.5" ry="1.5" fill="#8db442" opacity="0.84" filter="url(#glow)" />
<rect x="924.00" y="150.51" width="4.50" height="98.99" rx="1.5" ry="1.5" fill="#88b545" opacity="0.84" filter="url(#glow)" />
<rect x="930.00" y="135.24" width="4.50" height="129.53" rx="1.5" ry="1.5" fill="#83b747" opacity="0.85" filter="url(#glow)" />
<rect x="936.00" y="129.36" width="4.50" height="141.27" rx="1.5" ry="1.5" fill="#7db84a" opacity="0.84" filter="url(#glow)" />
<rect x="942.00" y="132.67" width="4.50" height="134.66" rx="1.5" ry="1.5" fill="#78b94d" opacity="0.82" filter="url(#glow)" />
<rect x="948.00" y="134.47" width="4.50" height="131.07" rx="1.5" ry="1.5" fill="#73bb4f" opacity="0.81" filter="url(#glow)" />
<rect x="954.00" y="129.36" width="4.50" height="141.28" rx="1.5" ry="1.5" fill="#6dbc52" opacity="0.81" filter="url(#glow)" />
<rect x="960.00" y="126.24" width="4.50" height="147.51" rx="1.5" ry="1.5" fill="#68bd54" opacity="0.82" filter="url(#glow)" />
<rect x="966.00" y="128.28" width="4.50" height="143.44" rx="1.5" ry="1.5" fill="#63be57" opacity="0.83" filter="url(#glow)" />
<rect x="972.00" y="132.38" width="4.50" height="135.24" rx="1.5" ry="1.5" fill="#5ec059" opacity="0.83" filter="url(#glow)" />
<rect x="978.00" y="141.80" width="4.50" height="116.40" rx="1.5" ry="1.5" fill="#58c15c" opacity="0.83" filter="url(#glow)" />
<rect x="984.00" y="149.82" width="4.50" height="100.35" rx="1.5" ry="1.5" fill="#53c25e" opacity="0.83" filter="url(#glow)" />
<rect x="990.00" y="159.50" width="4.50" height="81.00" rx="1.5" ry="1.5" fill="#4ec461" opacity="0.84" filter="url(#glow)" />
<rect x="996.00" y="165.33" width="4.50" height="69.33" rx="1.5" ry="1.5" fill="#48c564" opacity="0.84" filter="url(#glow)" />
<rect x="1002.00" y="149.65" width="4.50" height="100.71" rx="1.5" ry="1.5" fill="#43c666" opacity="0.85" filter="url(#glow)" />
<rect x="1008.00" y="141.68" width="4.50" height="116.63" rx="1.5" ry="1.5" fill="#3ec869" opacity="0.84" filter="url(#glow)" />
<rect x="1014.00" y="140.67" width="4.50" height="118.67" rx="1.5" ry="1.5" fill="#38c96b" opacity="0.82" filter="url(#glow)" />
<rect x="1020.00" y="136.52" width="4.50" height="126.95" rx="1.5" ry="1.5" fill="#33ca6e" opacity="0.81" filter="url(#glow)" />
<rect x="1026.00" y="130.44" width="4.50" height="139.11" rx="1.5" ry="1.5" fill="#2ecb70" opacity="0.82" filter="url(#glow)" />
<rect x="1032.00" y="113.70" width="4.50" height="172.59" rx="1.5" ry="1.5" fill="#2ECC71" opacity="0.85" filter="url(#glow)" />
<rect x="1038.00" y="99.92" width="4.50" height="200.15" rx="1.5" ry="1.5" fill="#2ECC71" opacity="0.88" filter="url(#glow)" />
<rect x="1044.00" y="95.47" width="4.50" height="209.05" rx="1.5" ry="1.5" fill="#2ECC71" opacity="0.90" filter="url(#glow)" />
<rect x="1050.00" y="101.98" width="4.50" height="196.04" rx="1.5" ry="1.5" fill="#2ECC71" opacity="0.90" filter="url(#glow)" />
<rect x="1056.00" y="111.69" width="4.50" height="176.62" rx="1.5" ry="1.5" fill="#2ECC71" opacity="0.90" filter="url(#glow)" />
<rect x="1062.00" y="128.97" width="4.50" height="142.06" rx="1.5" ry="1.5" fill="#2ECC71" opacity="0.89" filter="url(#glow)" />
<rect x="1068.00" y="145.10" width="4.50" height="109.81" rx="1.5" ry="1.5" fill="#2ECC71" opacity="0.88" filter="url(#glow)" />
<rect x="1074.00" y="158.77" width="4.50" height="82.47" rx="1.5" ry="1.5" fill="#2ECC71" opacity="0.89" filter="url(#glow)" />
</svg>