<?xml version="1.0" encoding="UTF-8"?>
<svg version="1.1" xmlns="http://www.w3.org/2000/svg" width="1032" height="1008">
<path d="M0 0 C340.56 0 681.12 0 1032 0 C1032 332.64 1032 665.28 1032 1008 C691.44 1008 350.88 1008 0 1008 C0 675.36 0 342.72 0 0 Z " fill="#191A2A" transform="translate(0,0)"/>
<path d="M0 0 C22.44 0 44.88 0 68 0 C68 105.6 68 211.2 68 320 C80.21 320 92.42 320 105 320 C105 270.17 105 220.34 105 169 C129.09 169 153.18 169 178 169 C178 218.83 178 268.66 178 320 C190.21 320 202.42 320 215 320 C215 214.4 215 108.8 215 0 C241.73 0 268.46 0 296 0 C296 127.38 296 254.76 296 386 C273.56 386 251.12 386 228 386 C228 423.29 228 460.58 228 499 C219.42 499 210.84 499 202 499 C202 495.37 202 491.74 202 488 C198.7 488 195.4 488 192 488 C192 484.37 192 480.74 192 477 C188.04 477 184.08 477 180 477 C180 474.03 180 471.06 180 468 C158.88 468 137.76 468 116 468 C116 470.97 116 473.94 116 477 C112.37 477 108.74 477 105 477 C105 480.63 105 484.26 105 488 C101.7 488 98.4 488 95 488 C95 491.63 95 495.26 95 499 C86.09 499 77.18 499 68 499 C68 461.71 68 424.42 68 386 C45.56 386 23.12 386 0 386 C0 258.62 0 131.24 0 0 Z " fill="#E4624A" transform="translate(373,356)"/>
<path d="M0 0 C35.97 0 71.94 0 109 0 C109 138.27 109 276.54 109 419 C92.83 419 76.66 419 60 419 C58.26858507 417.26858507 58.88022421 415.04249956 58.87557983 412.73521423 C58.88097275 411.60449242 58.88097275 411.60449242 58.88647461 410.45092773 C58.88632858 409.66074249 58.88618256 408.87055725 58.8860321 408.056427 C58.88673143 405.43212178 58.89452473 402.80788664 58.90234375 400.18359375 C58.90420786 398.36898335 58.9056318 396.55437244 58.90663147 394.73976135 C58.91045721 389.9540977 58.92028796 385.1684642 58.93133545 380.3828125 C58.9433427 374.64596429 58.94795154 368.90910601 58.95378876 363.17224884 C58.96349969 354.4481449 58.98265585 345.72410716 59 337 C39.53 337 20.06 337 0 337 C0 225.79 0 114.58 0 0 Z " fill="#E5624B" transform="translate(218,188)"/>
<path d="M0 0 C35.64 0 71.28 0 108 0 C108 111.21 108 222.42 108 337 C84.57 337 61.14 337 37 337 C37 364.06 37 391.12 37 419 C24.79 419 12.58 419 0 419 C0 280.73 0 142.46 0 0 Z " fill="#E5634B" transform="translate(716,188)"/>
<path d="M0 0 C29.04 0 58.08 0 88 0 C88 103.29 88 206.58 88 313 C58.96 313 29.92 313 0 313 C0 209.71 0 106.42 0 0 Z " fill="#E5634B" transform="translate(862,66)"/>
<path d="M0 0 C29.04 0 58.08 0 88 0 C88 103.29 88 206.58 88 313 C58.96 313 29.92 313 0 313 C0 209.71 0 106.42 0 0 Z " fill="#E3644C" transform="translate(92,66)"/>
<path d="M0 0 C15.18 0 30.36 0 46 0 C46 3.3 46 6.6 46 10 C49.63 10 53.26 10 57 10 C57 13.96 57 17.92 57 22 C60.63 22 64.26 22 68 22 C68 36.85 68 51.7 68 67 C64.37 67 60.74 67 57 67 C57 70.96 57 74.92 57 79 C53.37 79 49.74 79 46 79 C46 82.3 46 85.6 46 89 C30.82 89 15.64 89 0 89 C0 85.7 0 82.4 0 79 C-3.63 79 -7.26 79 -11 79 C-11 75.04 -11 71.08 -11 67 C-14.63 67 -18.26 67 -22 67 C-22 52.15 -22 37.3 -22 22 C-18.37 22 -14.74 22 -11 22 C-11.020625 20.205625 -11.04125 18.41125 -11.0625 16.5625 C-11.0838122 14.70833878 -11.07226502 12.85287502 -11 11 C-10 10 -10 10 -7.71484375 9.90234375 C-5.14322917 9.93489583 -2.57161458 9.96744792 0 10 C0 6.7 0 3.4 0 0 Z " fill="#1AB294" transform="translate(498,868)"/>
<path d="M0 0 C2.91758332 5.79011955 2.25366382 12.28903446 2.20254517 18.60421753 C2.20017046 19.88749597 2.19779576 21.17077441 2.1953491 22.49294007 C2.18849991 26.04815179 2.16907833 29.60320025 2.14758825 33.15834951 C2.1266066 36.99465727 2.11730645 40.83099548 2.10658264 44.66734314 C2.08641264 51.31183463 2.05885283 57.95626245 2.02626419 64.60070419 C1.97915729 74.20742896 1.94321022 83.81417002 1.90998094 93.42095162 C1.855765 109.00755865 1.79253218 124.59411553 1.72363281 140.18066406 C1.65672544 155.32094733 1.59406225 170.46123837 1.53710938 185.6015625 C1.53359693 186.53491577 1.53008449 187.46826905 1.52646561 188.42990576 C1.50887079 193.11229599 1.49135944 197.79468654 1.47388959 202.47707725 C1.32886695 241.31810852 1.16865647 280.15906469 1 319 C11.89 319 22.78 319 34 319 C34 269.83 34 220.66 34 170 C41.82393948 166.08803026 53.93409784 167.92528468 62.4453125 168.0859375 C63.7909993 168.107774 65.13669248 168.12922032 66.48239136 168.15029907 C69.2741489 168.19534399 72.06579204 168.24452333 74.85742188 168.296875 C78.43726617 168.36374094 82.01718924 168.420775 85.59724617 168.47490501 C88.36303229 168.51764881 91.12872219 168.56508208 93.89440536 168.61400223 C95.85649341 168.64798171 97.81864359 168.67830952 99.78079224 168.70858765 C100.96317474 168.73176056 102.14555725 168.75493347 103.36376953 168.77880859 C104.4067923 168.79736908 105.44981506 168.81592957 106.52444458 168.83505249 C109 169 109 169 111 170 C111 219.5 111 269 111 320 C126.84 319.505 126.84 319.505 143 319 C143 213.73 143 108.46 143 0 C226 -1 226 -1 229 1 C230.11269037 4.3380711 230.12649937 6.8241872 230.12863445 10.34221649 C230.13038749 10.99142636 230.13214053 11.64063622 230.13394669 12.30951911 C230.13862414 14.49994619 230.13613673 16.69030739 230.13371277 18.8807373 C230.13557986 20.46098749 230.13788015 22.04123721 230.14057809 23.62148619 C230.14671501 27.97572432 230.14656028 32.32994331 230.14538372 36.68418479 C230.14518019 41.37544284 230.15069382 46.06669466 230.15544128 50.75794983 C230.16375842 59.95279637 230.16649659 69.14763651 230.16705366 78.3424865 C230.16752826 85.81283352 230.16958016 93.28317843 230.17275429 100.75352478 C230.18156324 121.9148778 230.18617321 143.07622573 230.18542381 164.2375806 C230.18536388 165.94988299 230.18536388 165.94988299 230.18530273 167.69677734 C230.18526185 168.83969937 230.18522097 169.98262139 230.18517885 171.16017741 C230.18477216 189.6942668 230.19434681 208.22833589 230.2084411 226.7624194 C230.22278566 245.77498895 230.22971237 264.78754859 230.22884732 283.80012369 C230.22851472 294.48158023 230.2312895 305.16301549 230.24202538 315.84446716 C230.2511051 324.93667607 230.25332649 334.02885404 230.24651595 343.1210655 C230.24323809 347.76339051 230.24323943 352.40565609 230.2518692 357.04797554 C230.25967943 361.29291957 230.25835945 365.5377565 230.24958507 369.78269774 C230.24803792 371.32302857 230.24991141 372.86336718 230.25544515 374.40368885 C230.26244237 376.48851903 230.25726178 378.5729669 230.24888897 380.65778351 C230.24921502 382.39883008 230.24921502 382.39883008 230.24954766 384.1750493 C230 387 230 387 228 390 C225.25387573 390.39872742 225.25387573 390.39872742 221.71435547 390.43237305 C221.07032776 390.4425647 220.42630005 390.45275635 219.76275635 390.46325684 C217.63081275 390.49348761 215.49931764 390.50266751 213.3671875 390.51171875 C211.89029434 390.52855809 210.41341558 390.54670732 208.93655396 390.56611633 C205.04694111 390.61370399 201.15738661 390.64345625 197.26757812 390.66955566 C193.29936189 390.69931729 189.33134692 390.74586257 185.36328125 390.79101562 C177.5756205 390.87714827 169.78794528 390.94444879 162 391 C161.99761165 391.56414517 161.99522329 392.12829035 161.99276257 392.70953083 C161.93365181 406.43021714 161.85793751 420.15072505 161.76428509 433.87122059 C161.71949948 440.50633856 161.68026143 447.14139396 161.65356445 453.77661133 C161.62761323 460.17631927 161.58726898 466.57578747 161.53681374 472.97534752 C161.52008955 475.42062086 161.50861 477.86593571 161.50238609 480.31125832 C161.4928054 483.72835229 161.46481811 487.14482513 161.43237305 490.56176758 C161.43380814 491.57956299 161.43524323 492.5973584 161.4367218 493.64599609 C161.42418365 494.57567703 161.41164551 495.50535797 161.39872742 496.46321106 C161.39411845 497.27162351 161.38950949 498.08003595 161.38476086 498.91294575 C160.90374471 501.52211658 160.10179872 502.42089422 158 504 C155.36450195 504.2487793 155.36450195 504.2487793 152.23828125 504.07421875 C151.12001953 504.01943359 150.00175781 503.96464844 148.84960938 503.90820312 C147.68236328 503.83537109 146.51511719 503.76253906 145.3125 503.6875 C143.54422852 503.5956543 143.54422852 503.5956543 141.74023438 503.50195312 C138.82577331 503.34856044 135.91287541 503.18069004 133 503 C133 502.34 133 501.68 133 501 C141.58 501 150.16 501 159 501 C159 463.71 159 426.42 159 388 C181.44 388 203.88 388 227 388 C227 260.62 227 133.24 227 2 C200.27 2 173.54 2 146 2 C146 107.6 146 213.2 146 322 C133.79 322 121.58 322 109 322 C109 272.17 109 222.34 109 171 C84.91 171 60.82 171 36 171 C36 220.83 36 270.66 36 322 C23.79 322 11.58 322 -1 322 C-1 216.4 -1 110.8 -1 2 C-23.44 2 -45.88 2 -69 2 C-68.67 1.01 -68.34 0.02 -68 -1 C-60.02004552 -1.17737911 -52.03996871 -1.34330383 -44.05948448 -1.49477577 C-40.35347756 -1.56547331 -36.64763508 -1.64005314 -32.94189453 -1.72363281 C-29.36291825 -1.80420844 -25.78387249 -1.87441943 -22.20454788 -1.93757248 C-20.84179877 -1.96341429 -19.47911409 -1.99293454 -18.11652756 -2.02626419 C-16.20208368 -2.07245227 -14.28730656 -2.10412649 -12.37255859 -2.13525391 C-11.28445892 -2.15746002 -10.19635925 -2.17966614 -9.07528687 -2.20254517 C-5.60765873 -1.97415954 -3.11850813 -1.56290138 0 0 Z " fill="#320F13" transform="translate(442,354)"/>
<path d="M0 0 C1.36277573 -0.01268921 1.36277573 -0.01268921 2.75308228 -0.02563477 C3.74746307 -0.01956207 4.74184387 -0.01348938 5.76635742 -0.00723267 C6.81536224 -0.01248962 7.86436707 -0.01774658 8.94515991 -0.02316284 C12.42086574 -0.0363922 15.89611549 -0.02761412 19.37182617 -0.01748657 C21.78173918 -0.01950646 24.19165159 -0.02241718 26.6015625 -0.02618408 C31.6555767 -0.03061143 36.70943198 -0.02416303 41.76342773 -0.01016235 C48.25041858 0.00692956 54.7370371 -0.0029094 61.22401428 -0.02087975 C66.20132262 -0.03170639 71.1785423 -0.02827635 76.15585327 -0.02049637 C78.54812667 -0.01849127 80.94040804 -0.02096444 83.33267212 -0.02793503 C86.67276415 -0.03553092 90.01224831 -0.0239709 93.35229492 -0.00723267 C94.84386612 -0.01634171 94.84386612 -0.01634171 96.36557007 -0.02563477 C97.27408722 -0.01717529 98.18260437 -0.00871582 99.11865234 0 C100.3033033 0.00169662 100.3033033 0.00169662 101.5118866 0.00342751 C104.18426706 0.49618257 104.91641685 1.22709076 106.55932617 3.38095093 C106.93307233 5.91966164 106.93307233 5.91966164 106.93126297 9.02597237 C106.93785281 10.20871652 106.94444266 11.39146067 106.95123219 12.61004555 C106.94317579 13.91576543 106.93511939 15.22148531 106.92681885 16.56677246 C106.92884211 17.9628339 106.93218019 19.35889395 106.93672442 20.75494945 C106.94539761 24.60005982 106.93528391 28.44492981 106.92218208 32.29001927 C106.91131007 36.43317893 106.91769285 40.57631573 106.92196655 44.71948242 C106.92760822 52.83885869 106.91726979 60.95814075 106.90167859 69.07750095 C106.8841707 78.5239174 106.88272001 87.97031539 106.882063 97.41674553 C106.88037384 114.26502321 106.86454466 131.11325786 106.84057617 147.96151733 C106.81730973 164.32805742 106.80315057 180.69457022 106.79956055 197.06112671 C106.79933778 198.06937764 106.79911501 199.07762857 106.79888549 200.11643256 C106.79844291 202.1474312 106.79800088 204.17842984 106.79755943 206.20942848 C106.79733986 207.21119128 106.79712029 208.21295407 106.79689407 209.24507332 C106.79657009 210.74380899 106.79657009 210.74380899 106.79623957 212.27282215 C106.79254272 227.84634514 106.78118338 243.4198637 106.76876368 258.99338184 C106.76432199 264.64724927 106.76088639 270.3011163 106.75814155 275.9549848 C106.75371715 284.92045827 106.74597217 293.88591542 106.73136714 302.85137857 C106.72474143 306.95066565 106.71969123 311.04993823 106.7189064 315.14923096 C106.71812354 318.89566915 106.71275709 322.64207066 106.70358691 326.38849746 C106.69986132 328.39877593 106.70106428 330.40906163 106.70239377 332.41934311 C106.69663205 334.1856361 106.69663205 334.1856361 106.69075394 335.98761177 C106.68950744 337.01236961 106.68826094 338.03712744 106.68697667 339.09293854 C106.55932617 341.38095093 106.55932617 341.38095093 105.55932617 342.38095093 C104.22515141 342.53849607 102.8831572 342.63070809 101.54125977 342.69515991 C100.25356186 342.75764671 100.25356186 342.75764671 98.93984985 342.82139587 C97.99701141 342.86038498 97.05417297 342.89937408 96.08276367 342.93954468 C95.10294525 342.98179672 94.12312683 343.02404877 93.11361694 343.06758118 C81.47157058 343.52461718 69.83316085 343.49044349 58.18432617 343.44345093 C55.97208762 343.43841647 53.75984794 343.43385707 51.54760742 343.42977905 C46.21815487 343.41894921 40.88874616 343.40237119 35.55932617 343.38095093 C35.5637674 344.35369965 35.56820862 345.32644836 35.57278442 346.32867432 C35.61327107 355.48147853 35.64328192 364.63426465 35.66295052 373.78713799 C35.67340214 378.49308876 35.68758639 383.19896744 35.71020508 387.90487671 C35.73188443 392.44359168 35.7438844 396.98223717 35.74908066 401.52099991 C35.75278526 403.25541402 35.76001911 404.98982419 35.77078629 406.72420883 C35.78523612 409.14747179 35.78730687 411.57044502 35.78637695 413.9937439 C35.7935675 414.71591095 35.80075806 415.438078 35.8081665 416.18212891 C35.78743049 421.15284661 35.78743049 421.15284661 33.55932617 423.38095093 C30.55797004 423.5687126 27.65045471 423.63645275 24.64916992 423.61141968 C23.76652969 423.61096146 22.88388947 423.61050323 21.97450256 423.61003113 C20.10749976 423.6070078 18.24049951 423.5991191 16.37353516 423.58676147 C13.50503678 423.56850319 10.63686096 423.56625177 7.76831055 423.5664978 C5.95776086 423.56158281 4.14721338 423.55575457 2.33666992 423.54891968 C1.47315414 423.54780685 0.60963837 423.54669403 -0.28004456 423.54554749 C-6.32462768 423.49699708 -6.32462768 423.49699708 -7.44067383 422.38095093 C-7.60409821 419.93191709 -7.70208457 417.5091588 -7.75708008 415.05673218 C-7.77575386 414.3055823 -7.79442764 413.55443243 -7.8136673 412.78052044 C-8.30909667 392.21277944 -8.51803991 371.65375453 -8.50317383 351.08016968 C-8.50278449 349.74673463 -8.50245042 348.41329957 -8.50216866 347.0798645 C-8.49579777 326.08553054 -8.37230133 305.09314952 -8.18676758 284.09970093 C-8.17428108 282.67773633 -8.16180005 281.25577168 -8.14932442 279.83380699 C-8.10472543 274.75958262 -8.05987134 269.6853605 -8.01495349 264.61113894 C-7.62800076 220.83539825 -7.30731462 177.0643383 -7.63208008 133.28720093 C-7.63774703 132.52134611 -7.64341398 131.75549129 -7.64925265 130.96642876 C-7.76984155 114.86043529 -7.92292416 98.75485585 -8.09973228 82.64938831 C-8.60788223 36.15598791 -8.60788223 36.15598791 -8.15942383 16.81845093 C-8.14747482 16.11768433 -8.13552582 15.41691772 -8.12321472 14.69491577 C-8.08786257 12.79693389 -8.02970509 10.8994157 -7.9699707 9.00204468 C-7.94060425 7.97522583 -7.91123779 6.94840698 -7.88098145 5.89047241 C-7.05343133 1.17387266 -4.54534631 0.00650968 0 0 Z M-4.44067383 3.38095093 C-4.44067383 141.65095093 -4.44067383 279.92095093 -4.44067383 422.38095093 C7.76932617 422.38095093 19.97932617 422.38095093 32.55932617 422.38095093 C32.55932617 395.32095093 32.55932617 368.26095093 32.55932617 340.38095093 C55.98932617 340.38095093 79.41932617 340.38095093 103.55932617 340.38095093 C103.55932617 229.17095093 103.55932617 117.96095093 103.55932617 3.38095093 C67.91932617 3.38095093 32.27932617 3.38095093 -4.44067383 3.38095093 Z " fill="#3A1618" transform="translate(720.440673828125,184.61904907226563)"/>
<path d="M0 0 C35.97 0 71.94 0 109 0 C109 138.27 109 276.54 109 419 C92.83 419 76.66 419 60 419 C58.26858507 417.26858507 58.88022421 415.04249956 58.87557983 412.73521423 C58.88097275 411.60449242 58.88097275 411.60449242 58.88647461 410.45092773 C58.88632858 409.66074249 58.88618256 408.87055725 58.8860321 408.056427 C58.88673143 405.43212178 58.89452473 402.80788664 58.90234375 400.18359375 C58.90420786 398.36898335 58.9056318 396.55437244 58.90663147 394.73976135 C58.91045721 389.9540977 58.92028796 385.1684642 58.93133545 380.3828125 C58.9433427 374.64596429 58.94795154 368.90910601 58.95378876 363.17224884 C58.96349969 354.4481449 58.98265585 345.72410716 59 337 C39.53 337 20.06 337 0 337 C0 225.79 0 114.58 0 0 Z M2 2 C2.00092179 2.62008218 2.00184359 3.24016436 2.00279331 3.8790369 C2.02496578 19.03083662 2.04146838 34.18263129 2.05181217 49.33444309 C2.05694847 56.66201425 2.06393981 63.98957451 2.07543945 71.31713867 C2.08546834 77.71063223 2.09187277 84.10411789 2.09408849 90.49761909 C2.09538179 93.87673956 2.09837872 97.25583747 2.10573006 100.63495064 C2.11306074 104.42534817 2.11398592 108.21569996 2.11352539 112.00610352 C2.11712067 113.10231522 2.12071594 114.19852692 2.12442017 115.32795715 C2.11711191 120.93973533 1.92192245 126.4846124 1.5 132.08117676 C0.84104044 141.2871401 0.86735938 150.4693972 0.88647461 159.69506836 C0.88675733 161.6282908 0.88659709 163.56151334 0.8860321 165.49473572 C0.88574746 170.6961705 0.89159007 175.89758181 0.89860606 181.09901118 C0.9048953 186.55221736 0.90544778 192.00542418 0.90663147 197.45863342 C0.90972846 207.7641855 0.91791966 218.06972686 0.92798096 228.37527424 C0.93919302 240.11663062 0.94466534 251.85798754 0.94967639 263.59934795 C0.96010378 287.73290593 0.97842878 311.86644923 1 336 C20.8 336 40.6 336 61 336 C61.06058594 341.52363281 61.12117188 347.04726563 61.18359375 352.73828125 C61.22407983 356.23373192 61.26484885 359.72917467 61.30664062 363.22460938 C61.37297409 368.77495664 61.43824915 374.32530244 61.49731445 379.87573242 C61.54498955 384.34966244 61.59733359 388.82351553 61.65294075 393.29735374 C61.67335003 395.00579098 61.69206548 396.7142493 61.70907402 398.42272377 C61.73314958 400.81224832 61.76319985 403.20162757 61.79467773 405.59106445 C61.8004332 406.30028549 61.80618866 407.00950653 61.81211853 407.74021912 C61.85750011 410.76299652 62.03606919 413.10820756 63 416 C77.19 416 91.38 416 106 416 C106 279.71 106 143.42 106 3 C66.21457167 2.14687712 66.21457167 2.14687712 26.4375 1.9375 C24.0110687 1.94255812 21.5846363 1.94711294 19.15820312 1.95117188 C13.43877635 1.96176179 7.71939421 1.97811133 2 2 Z " fill="#BE6255" transform="translate(218,188)"/>
<path d="M0 0 C14.30780603 0.06047442 28.61542971 0.13812941 42.92303276 0.23571491 C49.56602653 0.28051839 56.20895755 0.31975237 62.85205078 0.34643555 C69.2582382 0.37236911 75.66418541 0.41270043 82.07022476 0.46318626 C84.51911567 0.47992251 86.96804818 0.49139449 89.41698837 0.49761391 C92.83668188 0.50718165 96.25575133 0.5351528 99.67529297 0.56762695 C100.69668365 0.56619186 101.71807434 0.56475677 102.77041626 0.5632782 C103.69872253 0.57581635 104.62702881 0.58835449 105.58346558 0.60127258 C106.79746694 0.60818603 106.79746694 0.60818603 108.03599358 0.61523914 C109.00817676 0.80569577 109.00817676 0.80569577 110 1 C112.45704076 4.68556114 112.25055226 6.47437821 112.25168228 10.87320709 C112.25458916 11.57982166 112.25749604 12.28643623 112.26049101 13.01446337 C112.26783394 15.40023027 112.26082783 17.78574343 112.25396729 20.17150879 C112.25627002 21.89200297 112.25944529 23.61249618 112.26342177 25.33298731 C112.27180411 30.07490025 112.26762896 34.81673314 112.26144934 39.55864644 C112.25693986 44.6670889 112.26390111 49.77551722 112.26940918 54.88395691 C112.27832096 64.89696995 112.27637324 74.90995308 112.2705839 84.92296731 C112.26607442 93.05788505 112.2654514 101.19279438 112.26763153 109.32771301 C112.267938 110.48376601 112.26824446 111.63981901 112.26856022 112.83090392 C112.26919964 115.17911113 112.26984807 117.52731833 112.2705054 119.87552553 C112.27621392 141.91524632 112.26964262 163.95495049 112.25890467 185.99466854 C112.24996868 204.92207251 112.25152058 223.84945195 112.26074219 242.77685547 C112.27143561 264.7355755 112.27566455 286.69428095 112.26951766 308.65300322 C112.26888054 310.99276447 112.26825179 313.33252573 112.26763153 315.67228699 C112.2671687 317.39927731 112.2671687 317.39927731 112.26669653 319.16115633 C112.2649668 327.29004303 112.26789066 335.41892051 112.27259064 343.54780579 C112.27818918 353.44882845 112.27670473 363.34981939 112.26602915 373.2508384 C112.26075856 378.30631388 112.25873919 383.36173639 112.26532745 388.41721153 C112.27126044 393.03964245 112.26805593 397.66197099 112.25737235 402.28439254 C112.25512701 403.96200225 112.25629978 405.63962052 112.26112393 407.3172248 C112.26715384 409.58720604 112.26102049 411.8568307 112.25168228 414.12679291 C112.25135758 415.39077455 112.25103287 416.65475619 112.25069833 417.95704031 C112 421 112 421 110 424 C107.91944885 424.3742218 107.91944885 424.3742218 105.32250977 424.37231445 C104.35132706 424.37854324 103.38014435 424.38477203 102.37953186 424.39118958 C100.80140968 424.37737495 100.80140968 424.37737495 99.19140625 424.36328125 C98.11374496 424.36377975 97.03608368 424.36427826 95.92576599 424.36479187 C93.64344441 424.36244817 91.36112041 424.35270234 89.07885742 424.33618164 C85.5803317 424.31262009 82.08256908 424.31561479 78.58398438 424.32226562 C76.36978711 424.3166881 74.15559307 424.30957776 71.94140625 424.30078125 C70.36632042 424.30214836 70.36632042 424.30214836 68.75941467 424.30354309 C67.7850798 424.29401108 66.81074493 424.28447906 65.80688477 424.2746582 C64.94909927 424.27005081 64.09131378 424.26544342 63.20753479 424.26069641 C61 424 61 424 58 422 C57.71345313 419.42681081 57.62147113 417.09502901 57.65942383 414.52099609 C57.65876671 413.3647599 57.65876671 413.3647599 57.65809631 412.18516541 C57.6601905 409.63100063 57.68355059 407.07748795 57.70703125 404.5234375 C57.71262498 402.75510008 57.71689613 400.98675803 57.71989441 399.21841431 C57.73136079 394.55923678 57.76084325 389.90033886 57.79400635 385.24127197 C57.8246687 380.48901146 57.83839153 375.73670587 57.85351562 370.984375 C57.88571134 361.65612701 57.93692922 352.32808673 58 343 C57.27781281 343.00666183 56.55562561 343.01332367 55.81155396 343.02018738 C49.01336891 343.08024036 42.21522338 343.12594472 35.41684151 343.15543652 C31.92149691 343.17110825 28.42637104 343.19237331 24.93115234 343.22631836 C20.91501742 343.26507941 16.89911309 343.27969664 12.8828125 343.29296875 C10.99527756 343.31619453 10.99527756 343.31619453 9.0696106 343.33988953 C7.90855804 343.34011612 6.74750549 343.34034271 5.55126953 343.34057617 C4.01238571 343.35056892 4.01238571 343.35056892 2.44241333 343.36076355 C1.63641693 343.24171158 0.83042053 343.12265961 0 343 C-2.28202489 339.57696267 -2.24907358 338.37387233 -2.24609566 334.35218525 C-2.25007775 333.1688244 -2.25405985 331.98546355 -2.25816262 330.76624328 C-2.24942409 328.80664028 -2.24942409 328.80664028 -2.24050903 326.80744934 C-2.24138073 325.41067686 -2.24313104 324.01390469 -2.24568737 322.61713427 C-2.25017205 318.77013875 -2.24214189 314.92325401 -2.23213124 311.07627261 C-2.22351513 306.93109231 -2.2264156 302.78591854 -2.22793579 298.64073181 C-2.22898581 291.45600205 -2.22269701 284.27130855 -2.21146011 277.08658791 C-2.19522389 266.69862144 -2.18999903 256.31067255 -2.18748413 245.92269477 C-2.18310407 229.06995388 -2.16978655 212.21723233 -2.15087891 195.36450195 C-2.13252814 178.99113054 -2.11836771 162.61776438 -2.10986328 146.24438477 C-2.10933783 145.23556843 -2.10881239 144.2267521 -2.10827102 143.18736557 C-2.10566099 138.12656142 -2.10313356 133.06575724 -2.10064721 128.00495303 C-2.07990504 86.00328857 -2.04467106 44.00164539 -2 2 C-1.34 2 -0.68 2 0 2 C0 1.34 0 0.68 0 0 Z M1 3 C1 114.21 1 225.42 1 340 C20.47 340 39.94 340 60 340 C59.98839844 345.83558594 59.97679687 351.67117188 59.96484375 357.68359375 C59.95973699 361.37044381 59.95492322 365.05728954 59.95117188 368.74414062 C59.94518343 374.60197856 59.93808311 380.45980093 59.92456055 386.31762695 C59.91373166 391.03787978 59.90772316 395.75811592 59.90512276 400.4783802 C59.90326851 402.28338954 59.89964791 404.08839792 59.89426994 405.89340019 C59.88705948 408.41259644 59.88600906 410.9317229 59.88647461 413.45092773 C59.88287933 414.20474228 59.87928406 414.95855682 59.87557983 415.73521423 C59.57440464 419.15554231 59.57440464 419.15554231 61 422 C77.17 422 93.34 422 110 422 C110 283.73 110 145.46 110 3 C74.03 3 38.06 3 1 3 Z " fill="#401517" transform="translate(217,185)"/>
<path d="M0 0 C29.04 0 58.08 0 88 0 C88 103.29 88 206.58 88 313 C58.96 313 29.92 313 0 313 C0 209.71 0 106.42 0 0 Z M3 3 C2.81862586 30.13816155 2.81862586 30.13816155 2.64428711 57.27636719 C2.63854734 58.19135908 2.63280758 59.10635097 2.62689388 60.04906988 C2.58420808 66.86604421 2.54199153 73.68302137 2.5 80.5 C2.49405146 81.46408342 2.48810292 82.42816685 2.48197412 83.42146492 C2.13220651 140.19791021 1.90391884 196.97242654 1.9375 253.75 C1.93792423 254.48945736 1.93834846 255.22891472 1.93878555 255.99077988 C1.94949096 274.32719952 1.96883548 292.66360276 2 311 C12.08357856 311.02317774 22.16715076 311.04094282 32.25075054 311.05181217 C36.93304575 311.0570291 41.61532271 311.06410517 46.29760742 311.07543945 C50.81687919 311.08631058 55.33613342 311.09228581 59.85541725 311.09487724 C61.57897022 311.09672386 63.30252224 311.10032983 65.02606773 311.10573006 C67.4414718 311.11299654 69.85680355 311.11398857 72.2722168 311.11352539 C72.98359802 311.11712067 73.69497925 311.12071594 74.42791748 311.12442017 C78.07954708 311.1168509 81.44885828 310.86780493 85 310 C86.04309302 282.95381923 86.04309302 282.95381923 85.4143219 255.91567993 C84.96097416 247.86761247 84.91658878 239.83613148 84.93359375 231.77734375 C84.93474182 230.60698798 84.93474182 230.60698798 84.93591309 229.41298866 C84.9700238 196.26942525 85.30315961 163.12520015 85.55461884 129.98272049 C85.92120563 81.90573037 85.92120563 81.90573037 86.08811951 33.82772255 C86.09184177 31.33082096 86.09715482 28.83392118 86.10414124 26.3370266 C86.11291707 22.94252113 86.11515355 19.54807975 86.11523438 16.15356445 C86.11880447 15.15803621 86.12237457 14.16250797 86.12605286 13.13681221 C86.1245372 12.23224722 86.12302155 11.32768223 86.12145996 10.39570618 C86.12217247 9.61353383 86.12288498 8.83136148 86.12361908 8.02548695 C86.07484434 5.79478609 86.07484434 5.79478609 85 3 C57.94 3 30.88 3 3 3 Z " fill="#C96859" transform="translate(862,66)"/>
<path d="M0 0 C35.64 0 71.28 0 108 0 C108 111.21 108 222.42 108 337 C84.57 337 61.14 337 37 337 C37 336.34 37 335.68 37 335 C59.44 334.67 81.88 334.34 105 334 C105.33 224.77 105.66 115.54 106 3 C104.02 3.33 102.04 3.66 100 4 C97.78467178 4.02674961 97.78467178 4.02674961 95.70758057 3.89002991 C94.530292 3.81987624 94.530292 3.81987624 93.32921982 3.74830532 C92.49902454 3.69351544 91.66882927 3.63872557 90.81347656 3.58227539 C80.86695057 3.00673891 70.9454273 2.78694757 60.984375 2.68359375 C59.26417651 2.66293276 57.54398203 2.64193462 55.8237915 2.62062073 C51.37218559 2.56634096 46.92054143 2.51653126 42.46887207 2.46777344 C37.89588153 2.41685521 33.32294414 2.36154251 28.75 2.30664062 C19.8333791 2.20021651 10.91671136 2.09853225 2 2 C2.00515373 2.5677908 2.01030746 3.13558161 2.01561737 3.72057819 C2.14219312 17.6748683 2.26739448 31.62917021 2.39115143 45.5834856 C2.45103614 52.33227443 2.51138077 59.08105851 2.57275391 65.82983398 C2.63217377 72.36567468 2.69038304 78.90152522 2.74781799 85.43738365 C2.76972491 87.90751199 2.79203867 90.37763676 2.81480408 92.84775734 C2.84707869 96.35788721 2.87800403 99.86802552 2.90820312 103.37817383 C2.91812035 104.49508008 2.92803757 105.61198633 2.93825531 106.76273823 C2.98565708 112.71865382 3.00107904 118.67315793 2.97827148 124.62924194 C2.97420036 125.87217608 2.97012924 127.11511023 2.96593475 128.39570904 C2.95629787 130.78086441 2.94228077 133.16600725 2.92328644 135.55110645 C2.91672657 137.14835827 2.91672657 137.14835827 2.91003418 138.77787781 C2.90340508 139.71642451 2.89677597 140.65497122 2.88994598 141.62195873 C2.89889731 144.150079 2.89889731 144.150079 4 147 C4.09474886 149.01779311 4.13072216 151.0385784 4.1328125 153.05859375 C4.13474609 154.84426758 4.13474609 154.84426758 4.13671875 156.66601562 C4.13285156 157.91060547 4.12898437 159.15519531 4.125 160.4375 C4.12886719 161.67822266 4.13273438 162.91894531 4.13671875 164.19726562 C4.13542969 165.38900391 4.13414062 166.58074219 4.1328125 167.80859375 C4.13168457 168.89970459 4.13055664 169.99081543 4.12939453 171.11499023 C4.01606558 173.6417982 3.61559594 175.57427916 3 178 C1.89439833 189.33403346 1.997406 200.57821538 2.40921021 211.94381714 C2.86378021 224.74221639 3.10608305 237.43714494 2.41064453 250.23120117 C1.88464954 260.58985326 1.88128554 270.94308113 1.875 281.3125 C1.87259308 282.20121796 1.87018616 283.08993591 1.8677063 284.00558472 C1.39453181 299.69525436 1.39453181 299.69525436 3.55981445 315.11035156 C4.26613649 318.14248277 3.48672196 320.94923946 3 324 C2.78899598 326.6440627 2.60149786 329.290106 2.4375 331.9375 C2.39431641 332.62134766 2.35113281 333.30519531 2.30664062 334.00976562 C2.20196005 335.67302365 2.10062406 337.33649163 2 339 C2.66 339.33 3.32 339.66 4 340 C3.73761154 346.51058966 3.47058122 353.02097748 3.20043945 359.53125 C3.10922017 361.74246995 3.0190337 363.95373278 2.92993164 366.16503906 C2.8011088 369.35754242 2.66847802 372.54986923 2.53515625 375.7421875 C2.49656998 376.71864227 2.4579837 377.69509705 2.41822815 378.70114136 C2.15772544 384.82960128 1.6802688 390.90379892 1 397 C1.66 397.33 2.32 397.66 3 398 C2.67 403.94 2.34 409.88 2 416 C12.89 416 23.78 416 35 416 C35 408.41 35 400.82 35 393 C35.33 393 35.66 393 36 393 C36 401.25 36 409.5 36 418 C24.12 418 12.24 418 0 418 C0 280.06 0 142.12 0 0 Z " fill="#D16C61" transform="translate(716,188)"/>
<path d="M0 0 C0.83123383 0.00404846 1.66246765 0.00809692 2.51889038 0.01226807 C3.3937912 0.00876343 4.26869202 0.00525879 5.17010498 0.00164795 C8.07160296 -0.00717824 10.97285852 -0.00131709 13.87435913 0.00543213 C15.88453214 0.00408573 17.89470482 0.00214542 19.90487671 -0.00036621 C24.12162368 -0.00331868 28.33828604 0.00098411 32.55502319 0.01031494 C37.96928137 0.02170952 43.38334127 0.01515071 48.79759216 0.00317001 C52.94961042 -0.00404527 57.10158142 -0.00176218 61.25360107 0.0034256 C63.25036645 0.00476301 65.24713607 0.00311119 67.24389648 -0.00153351 C70.03098983 -0.0065933 72.81775879 0.00110375 75.60482788 0.01226807 C76.43606171 0.0082196 77.26729553 0.00417114 78.12371826 0 C83.83333114 0.04252914 83.83333114 0.04252914 86.06185913 2.27105713 C86.31370813 4.51770592 86.31370813 4.51770592 86.31633472 7.38418579 C86.32216692 8.47375391 86.32799911 9.56332203 86.33400804 10.68590736 C86.33022871 11.89269331 86.32644939 13.09947926 86.32255554 14.34283447 C86.32829386 16.25438355 86.32829386 16.25438355 86.33414811 18.20454979 C86.34448099 21.75349154 86.34223294 25.30233288 86.33796751 28.85128307 C86.33550985 32.67410068 86.34450241 36.4968935 86.352005 40.31970215 C86.36478052 47.81320461 86.36654219 55.3066713 86.36420474 62.80018282 C86.36242473 68.88803285 86.36416439 74.97587198 86.36842918 81.0637207 C86.36902437 81.92878498 86.36961956 82.79384927 86.37023279 83.68512762 C86.37144448 85.44225709 86.37265862 87.19938656 86.37387516 88.95651603 C86.38476153 105.44945954 86.38258293 121.94238262 86.37649032 138.43532729 C86.37131921 153.53968055 86.38257977 168.64396935 86.40158854 183.74830985 C86.4209371 199.24085896 86.42922825 214.73337752 86.42546529 230.2259388 C86.42354882 238.93051397 86.426084 247.63503426 86.44017982 256.33959961 C86.45205663 263.74911413 86.45354029 271.15853998 86.44138966 278.56805563 C86.435475 282.35157281 86.43447228 286.13492751 86.44639206 289.91843414 C86.45913985 294.01217995 86.44884823 298.10553424 86.43608093 302.19927979 C86.44345522 303.40606573 86.4508295 304.61285168 86.45842725 305.85620689 C86.44761744 307.49055907 86.44761744 307.49055907 86.43658924 309.15792847 C86.43667176 310.576836 86.43667176 310.576836 86.43675596 312.02440834 C86.31304 312.76580244 86.18932405 313.50719654 86.06185913 314.27105713 C82.19583517 316.84840644 78.96210644 316.58558504 74.47543335 316.60577393 C73.59878021 316.61742584 72.72212708 316.62907776 71.81890869 316.64108276 C68.91814087 316.6771015 66.01745678 316.69894139 63.11654663 316.72027588 C61.10540006 316.74152061 59.094261 316.76348738 57.08312988 316.78614807 C52.86822817 316.83156698 48.65333493 316.87035752 44.43832397 316.90411377 C39.02280619 316.94771336 33.60752666 317.00443327 28.19218254 317.06566143 C24.04025854 317.11173496 19.88829688 317.15257424 15.73630142 317.19162941 C13.73869736 317.21073759 11.74110493 317.2311031 9.74352646 317.25272179 C6.95886504 317.28174204 4.17423201 317.30412846 1.38949585 317.32452393 C0.55623779 317.33432785 -0.27702026 317.34413177 -1.13552856 317.35423279 C-3.0699021 317.36487299 -5.00445461 317.32370372 -6.93814087 317.27105713 C-8.84385851 315.36533949 -8.18035057 311.9775341 -8.24987793 309.44474792 C-8.27034156 308.71679445 -8.29080519 307.98884097 -8.31188893 307.2388283 C-8.3785216 304.76002568 -8.43616719 302.28112383 -8.49234009 299.80206299 C-8.51330238 298.92756811 -8.53426467 298.05307323 -8.55586219 297.15207851 C-9.13794216 272.35757296 -9.08488416 247.55806746 -9.07246637 222.75824475 C-9.07093409 218.7241988 -9.07103498 214.69015671 -9.07195663 210.65611076 C-9.07210987 209.97768348 -9.0722631 209.2992562 -9.07242098 208.60027052 C-9.07274082 207.22046217 -9.07306504 205.84065381 -9.07339357 204.46084546 C-9.07621345 191.66534599 -9.07301537 178.86985381 -9.0675932 166.07435554 C-9.06311296 155.16425181 -9.06391794 144.25415872 -9.06851196 133.34405518 C-9.0738937 120.55792233 -9.07595497 107.77179575 -9.0728997 94.98566192 C-9.07258126 93.61669695 -9.07226689 92.24773198 -9.07195663 90.87876701 C-9.07180236 90.20582087 -9.07164808 89.53287472 -9.07148913 88.83953627 C-9.07063587 84.16151654 -9.07211127 79.48350212 -9.07443619 74.80548286 C-9.07735741 68.49063905 -9.07526244 62.17581506 -9.06954193 55.86097336 C-9.06823772 53.56709641 -9.06856772 51.27321774 -9.0708046 48.97934151 C-9.08131643 37.09001521 -8.95320154 25.21308218 -8.55505371 13.32975769 C-8.52469689 12.25060894 -8.49434008 11.17146018 -8.46306336 10.05960995 C-8.42497838 9.06778381 -8.38689341 8.07595767 -8.34765434 7.05407619 C-8.31705701 6.17669212 -8.28645967 5.29930804 -8.25493515 4.39533657 C-7.52407755 -0.50546464 -4.18510247 0.03117353 0 0 Z M-4.93814087 2.27105713 C-4.93814087 105.56105713 -4.93814087 208.85105713 -4.93814087 315.27105713 C24.10185913 315.27105713 53.14185913 315.27105713 83.06185913 315.27105713 C83.06185913 211.98105713 83.06185913 108.69105713 83.06185913 2.27105713 C54.02185913 2.27105713 24.98185913 2.27105713 -4.93814087 2.27105713 Z " fill="#3A191C" transform="translate(96.93814086914063,63.72894287109375)"/>
<path d="M0 0 C26.73 0 53.46 0 81 0 C81 127.38 81 254.76 81 386 C71.43 386 61.86 386 52 386 C52 385.34 52 384.68 52 384 C60.91 384 69.82 384 79 384 C78.96970703 380.62740967 78.93941406 377.25481934 78.90820312 373.7800293 C78.80731794 362.52848352 78.70775836 351.27692627 78.60884857 340.02536297 C78.54895815 333.21604011 78.48864211 326.40672157 78.42724609 319.59741211 C78.36779094 313.00321704 78.30962497 306.40901127 78.25218201 299.81479836 C78.23027139 297.32234139 78.20795734 294.82988793 78.18519592 292.33743858 C78.05621088 278.18027076 77.97428385 264.02504605 78.00804901 249.86721325 C78.0213861 242.33497113 77.89068505 234.83582702 77.5 227.3125 C77.45230469 226.28962891 77.40460938 225.26675781 77.35546875 224.21289062 C77.2425753 221.80826004 77.12435361 219.40405961 77 217 C77.66 217 78.32 217 79 217 C79 213.37 79 209.74 79 206 C78.34 205.67 77.68 205.34 77 205 C76.87456446 197.4738676 76.87456446 197.4738676 77.5625 194.875 C78.20034366 192.14138433 77.46681696 189.74254962 77 187 C77.33 186.01 77.66 185.02 78 184 C78.07822346 182.06797763 78.09394033 180.13324561 78.07788086 178.19970703 C78.06864342 176.32132645 78.06864342 176.32132645 78.05921936 174.40499878 C78.05392778 173.71658779 78.04863621 173.0281768 78.04318428 172.31890488 C78.01466846 168.38354258 78.00686775 164.44814611 77.99951172 160.51269531 C77.99777356 159.62666815 77.9960354 158.74064098 77.99424458 157.82776451 C77.98276054 146.51069841 78.10274968 135.19470445 78.21532059 123.87831879 C78.25420638 119.96196002 78.29154429 116.04558922 78.32846069 112.12921143 C78.43091587 101.30614959 78.53453074 90.48310693 78.64819336 79.66015625 C78.71865185 72.94785198 78.78243728 66.23551036 78.84269524 59.52310562 C78.86637791 57.00943937 78.89223495 54.49579243 78.92053413 51.98217392 C79.10371781 35.62084674 78.82536635 19.34262486 78 3 C77.2616391 3.00222061 76.5232782 3.00444122 75.76254272 3.00672913 C68.78896332 3.02680339 61.81538825 3.04201048 54.84178734 3.05181217 C51.25697975 3.05702078 47.67219614 3.06408157 44.08740234 3.07543945 C40.6249938 3.08634037 37.16260825 3.09229206 33.70018387 3.09487724 C31.74269095 3.09761189 29.78520722 3.10541244 27.82772827 3.11329651 C26.02654037 3.11340981 26.02654037 3.11340981 24.18896484 3.11352539 C22.61011002 3.11685631 22.61011002 3.11685631 20.99935913 3.12025452 C18 3 18 3 15.2381897 2.49290466 C10.81634091 1.81982801 6.46362051 1.92060754 2 2 C1.97656947 23.87164264 1.95897117 45.7432832 1.94818783 67.61493587 C1.94304636 77.77185932 1.9360449 87.92877494 1.92456055 98.08569336 C1.91454774 106.9454267 1.90813097 115.80515437 1.90591151 124.66489321 C1.90461554 129.34969668 1.90160101 134.03448392 1.89426994 138.71928215 C1.88740529 143.14250206 1.88540394 147.5656993 1.88689232 151.98892403 C1.88662063 153.59917957 1.88467819 155.209436 1.88079453 156.81968689 C1.86208379 164.98884481 1.98374084 173.12580391 2.44459534 181.28346252 C2.48339087 181.98492305 2.52218641 182.68638357 2.56215757 183.40910047 C2.7889336 187.02578333 3.28071488 190.45510664 4 194 C4.08850638 195.68664755 4.13043128 197.37617483 4.13371277 199.06513977 C4.13797775 200.06173615 4.14224274 201.05833252 4.14663696 202.08512878 C4.14618378 203.16732193 4.14573059 204.24951508 4.14526367 205.36450195 C4.14862228 206.51305664 4.1519809 207.66161133 4.15544128 208.8449707 C4.16494187 212.64275188 4.16689399 216.44048893 4.16796875 220.23828125 C4.17118205 222.87997964 4.17454618 225.52167784 4.17805481 228.16337585 C4.1844453 233.70226326 4.18593778 239.24113871 4.18530273 244.7800293 C4.18470245 251.16872451 4.1952468 257.55733515 4.2110464 263.94600898 C4.22573401 270.10601919 4.2292898 276.26598905 4.22869301 282.42601585 C4.22987205 285.04023776 4.23428954 287.65446031 4.24202538 290.26867104 C4.25184033 293.92828987 4.24894103 297.58769201 4.24291992 301.24731445 C4.24853943 302.32343491 4.25415894 303.39955536 4.25994873 304.50828552 C4.25575424 305.51334137 4.25155975 306.51839722 4.24723816 307.5539093 C4.24778293 308.41758779 4.24832769 309.28126627 4.24888897 310.17111683 C3.92578102 313.84357625 2.89414293 317.42342827 2 321 C-10.54 321 -23.08 321 -36 321 C-36 320.67 -36 320.34 -36 320 C-24.12 320 -12.24 320 0 320 C0 214.4 0 108.8 0 0 Z " fill="#C76D60" transform="translate(588,356)"/>
<path d="M0 0 C22.11 0 44.22 0 67 0 C67 105.6 67 211.2 67 320 C66.34 320 65.68 320 65 320 C65.00092179 319.33877105 65.00184359 318.6775421 65.00279331 317.9962759 C65.0309367 297.46398192 65.04954111 276.93168803 65.06108999 256.3993783 C65.06249419 253.94764227 65.06401195 251.49590633 65.06554031 249.04417038 C65.10975428 188.84875355 65.10975428 188.84875355 64.30930328 128.65963745 C64.2691961 126.69026178 64.23095472 124.72084839 64.19277954 122.75143433 C64.1472186 120.46894563 64.09659088 118.18654813 64.03915405 115.90432739 C63.93958754 111.09114719 64.17100533 106.75432761 65 102 C64.69149848 100.66070328 64.35470886 99.32780665 64 98 C63.90340826 95.26189756 63.86019483 92.55043368 63.8671875 89.8125 C63.86586823 88.98171936 63.86454895 88.15093872 63.8631897 87.29498291 C63.86125265 84.52995243 63.86767795 81.76502051 63.875 79 C63.87632935 77.57802307 63.87632935 77.57802307 63.87768555 76.12731934 C63.90446632 51.41175584 64.46861499 26.70940307 65 2 C34.31 2.495 34.31 2.495 3 3 C3.00523682 11.66862305 3.01047363 20.33724609 3.01586914 29.26855469 C3.0319701 57.10743911 3.04306423 84.94632355 3.05106533 112.78521143 C3.05231581 117.12031675 3.05361016 121.45542205 3.05493164 125.79052734 C3.05519395 126.65345155 3.05545626 127.51637576 3.05572652 128.40544918 C3.06006007 142.31866682 3.0679347 156.23188027 3.0771528 170.14509544 C3.08655404 184.45570743 3.09206921 198.76631724 3.09408849 213.07693219 C3.09545038 221.88433071 3.09972764 230.69171736 3.10791647 239.49911222 C3.11326404 245.56519965 3.11478641 251.63128107 3.11350138 257.69737068 C3.1128703 261.18025582 3.11373172 264.66312046 3.11920547 268.14600182 C3.14057596 284.14097914 2.87746555 300.08956405 2.21998024 316.07171822 C1.92635304 323.38951171 1.92232652 330.68505156 2.05078125 338.0078125 C2.0696489 339.31740936 2.08851654 340.62700623 2.10795593 341.97628784 C2.14783004 344.67244559 2.19287724 347.36844763 2.24194336 350.06445312 C2.30417627 353.518275 2.35030872 356.97212648 2.39277363 360.42624092 C2.43633262 363.76609402 2.49427336 367.10565329 2.55078125 370.4453125 C2.57281364 372.29952316 2.57281364 372.29952316 2.59529114 374.19119263 C2.62993721 375.88730179 2.62993721 375.88730179 2.6652832 377.61767578 C2.68162308 378.61243927 2.69796295 379.60720276 2.71479797 380.6321106 C2.77529589 383.18694658 2.77529589 383.18694658 5 385 C3.35 385.33 1.7 385.66 0 386 C0 258.62 0 131.24 0 0 Z " fill="#D86F5F" transform="translate(373,356)"/>
<path d="M0 0 C1.06056862 -0.00197891 1.06056862 -0.00197891 2.14256287 -0.0039978 C4.52346857 -0.00594946 6.90426193 0.00052519 9.28515625 0.0078125 C10.5101181 0.00914185 10.5101181 0.00914185 11.75982666 0.01049805 C34.95995048 0.03960525 58.15473105 0.59879291 81.34765625 1.1328125 C81.34765625 1.4628125 81.34765625 1.7928125 81.34765625 2.1328125 C52.63765625 2.1328125 23.92765625 2.1328125 -5.65234375 2.1328125 C-5.65234375 105.4228125 -5.65234375 208.7128125 -5.65234375 315.1328125 C23.71765625 315.1328125 53.08765625 315.1328125 83.34765625 315.1328125 C83.34765625 212.5028125 83.34765625 109.8728125 83.34765625 4.1328125 C83.67765625 4.1328125 84.00765625 4.1328125 84.34765625 4.1328125 C84.47611021 36.96482473 84.60361031 69.79684051 84.72983852 102.62886137 C84.74485293 106.53390565 84.7598752 110.43894991 84.77490234 114.34399414 C84.77789296 115.12118785 84.78088357 115.89838156 84.78396481 116.69912659 C84.83196003 129.16717265 84.8805872 141.63521616 84.92946166 154.1032588 C84.9798615 166.96415431 85.02955044 179.82505244 85.07862329 192.68595308 C85.10609727 199.88122938 85.13387851 207.0765042 85.16246033 214.2717762 C85.17067724 216.3488164 85.17888209 218.42585664 85.18707663 220.50289693 C85.19247252 221.86886393 85.19788814 223.23483085 85.20332378 224.60079769 C85.23192173 231.80954449 85.25801992 239.01828767 85.2771225 246.22706699 C85.28378007 248.71649236 85.29044551 251.2059177 85.29711914 253.69534302 C85.30027901 254.90222029 85.30343888 256.10909756 85.30669451 257.35254687 C85.32818427 264.52613911 85.37265504 271.69914594 85.43678141 278.87248117 C85.47489862 283.32276139 85.50189232 287.77306811 85.52690792 292.2234391 C85.54136869 294.28045978 85.56113348 296.33745093 85.58654881 298.39436543 C85.62061784 301.17975013 85.63664474 303.96467431 85.64831543 306.75022888 C85.66310283 307.56460903 85.67789022 308.37898917 85.69312572 309.2180475 C85.68970575 314.62730366 85.68970575 314.62730366 84.00000954 317.12447548 C76.1830982 321.89469088 59.87776833 319.17129091 50.79296875 319.01171875 C49.15388752 318.98734451 47.51479826 318.96350498 45.8757019 318.94017029 C41.61129437 318.87805428 37.34703339 318.80879211 33.08276367 318.73791504 C28.71149229 318.66656654 24.34011896 318.60215106 19.96875 318.53710938 C11.42827234 318.40903493 2.88793719 318.27339227 -5.65234375 318.1328125 C-5.65234375 317.4728125 -5.65234375 316.8128125 -5.65234375 316.1328125 C-6.31234375 316.1328125 -6.97234375 316.1328125 -7.65234375 316.1328125 C-8.80003255 313.8374349 -8.77763483 312.56285769 -8.77818489 310.01106739 C-8.78079264 309.14228767 -8.78340039 308.27350795 -8.78608716 307.37840158 C-8.78385643 306.41787919 -8.78162571 305.45735679 -8.77932739 304.46772766 C-8.78088738 303.45126842 -8.78244737 302.43480918 -8.78405464 301.38754815 C-8.78806549 297.95667456 -8.78487412 294.52584468 -8.78173828 291.0949707 C-8.78309273 288.64207432 -8.78487291 286.18917814 -8.78704834 283.73628235 C-8.79115246 277.73698541 -8.79052486 271.73770577 -8.7876357 265.7384095 C-8.78537256 260.83284495 -8.78507314 255.92728389 -8.78615952 251.02171898 C-8.78631275 250.32182652 -8.78646598 249.62193406 -8.78662386 248.90083274 C-8.78694365 247.47808503 -8.78726786 246.05533731 -8.78759645 244.6325896 C-8.79045556 231.24929386 -8.78716326 217.86600494 -8.78179608 204.48271032 C-8.7773793 193.12234049 -8.77805999 181.76198095 -8.78271484 170.40161133 C-8.78814363 157.14668633 -8.79012681 143.89176743 -8.78710258 130.63684148 C-8.78678415 129.20327485 -8.78646978 127.76970822 -8.78615952 126.33614159 C-8.78600524 125.63133028 -8.78585096 124.92651898 -8.78569201 124.20034975 C-8.7848474 119.35602601 -8.78626562 114.51170632 -8.78863907 109.66738319 C-8.80122043 81.38659323 -8.69093931 53.11347361 -8.20654297 24.83666992 C-8.18713095 23.62847363 -8.16771893 22.42027734 -8.14771867 21.17546904 C-8.09220052 17.81392223 -8.02960005 14.45259729 -7.96408081 11.0912323 C-7.94778523 10.08957751 -7.93148965 9.08792272 -7.91470027 8.05591476 C-7.89518345 7.15155563 -7.87566663 6.2471965 -7.8555584 5.31543255 C-7.8404147 4.52679937 -7.82527101 3.73816619 -7.80966842 2.92563504 C-7.43654722 -1.326337 -3.43310782 0.00305262 0 0 Z " fill="#3D1417" transform="translate(867.65234375,63.8671875)"/>
<path d="M0 0 C0.66 0 1.32 0 2 0 C2.04573806 52.81747743 2.08099916 105.63495286 2.10213066 158.45244618 C2.10463219 164.68240881 2.10722082 170.91237141 2.10986328 177.14233398 C2.1103879 178.38265218 2.11091252 179.62297038 2.11145304 180.90087398 C2.12016509 201.00651735 2.13593944 221.11214933 2.15430559 241.21778593 C2.17298243 261.83487595 2.18411202 282.45195999 2.18817699 303.06905812 C2.19092666 315.7996723 2.1996236 328.53025428 2.21583293 341.26085856 C2.22637248 349.98056239 2.22960753 358.70024948 2.22700275 367.41995922 C2.22571672 372.4571908 2.22774284 377.49436596 2.23841095 382.5315876 C2.24809479 387.13747733 2.24866682 391.74327235 2.24179779 396.3491663 C2.24094797 398.02081213 2.24352616 399.69246371 2.24976636 401.36409811 C2.25772343 403.62606587 2.25350885 405.88768597 2.24609566 408.14964771 C2.24723482 410.03894622 2.24723482 410.03894622 2.24839699 411.96641237 C2 415 2 415 0 418 C-2.08055115 418.3742218 -2.08055115 418.3742218 -4.67749023 418.37231445 C-5.64867294 418.37854324 -6.61985565 418.38477203 -7.62046814 418.39118958 C-9.19859032 418.37737495 -9.19859032 418.37737495 -10.80859375 418.36328125 C-11.88625504 418.36377975 -12.96391632 418.36427826 -14.07423401 418.36479187 C-16.35655559 418.36244817 -18.63887959 418.35270234 -20.92114258 418.33618164 C-24.4196683 418.31262009 -27.91743092 418.31561479 -31.41601562 418.32226562 C-33.63021289 418.3166881 -35.84440693 418.30957776 -38.05859375 418.30078125 C-39.63367958 418.30214836 -39.63367958 418.30214836 -41.24058533 418.30354309 C-42.2149202 418.29401108 -43.18925507 418.28447906 -44.19311523 418.2746582 C-45.05090073 418.27005081 -45.90868622 418.26544342 -46.79246521 418.26069641 C-49 418 -49 418 -52 416 C-52.28654687 413.42681081 -52.37852887 411.09502901 -52.34057617 408.52099609 C-52.34123329 407.3647599 -52.34123329 407.3647599 -52.34190369 406.18516541 C-52.3398095 403.63100063 -52.31644941 401.07748795 -52.29296875 398.5234375 C-52.28737502 396.75510008 -52.28310387 394.98675803 -52.28010559 393.21841431 C-52.26863921 388.55923678 -52.23915675 383.90033886 -52.20599365 379.24127197 C-52.1753313 374.48901146 -52.16160847 369.73670587 -52.14648438 364.984375 C-52.11428866 355.65612701 -52.06307078 346.32808673 -52 337 C-52.68460297 337.00444122 -53.36920593 337.00888245 -54.07455444 337.01345825 C-61.17923909 337.05759497 -68.283885 337.0878261 -75.38867188 337.10986328 C-78.04265931 337.11994089 -80.6966356 337.13360313 -83.35058594 337.15087891 C-87.15823107 337.17504992 -90.96572984 337.18646535 -94.7734375 337.1953125 C-96.56254044 337.21079636 -96.56254044 337.21079636 -98.38778687 337.22659302 C-100.03927231 337.22681961 -100.03927231 337.22681961 -101.72412109 337.22705078 C-102.69674896 337.231492 -103.66937683 337.23593323 -104.67147827 337.24050903 C-107 337 -107 337 -109 335 C-89.53 335 -70.06 335 -50 335 C-49.67 361.4 -49.34 387.8 -49 415 C-24.745 415.495 -24.745 415.495 0 416 C0 278.72 0 141.44 0 0 Z " fill="#2B0A0E" transform="translate(327,191)"/>
<path d="M0 0 C35.64 0 71.28 0 108 0 C108 111.21 108 222.42 108 337 C84.57 337 61.14 337 37 337 C37 336.34 37 335.68 37 335 C59.44 334.67 81.88 334.34 105 334 C105.33 224.11 105.66 114.22 106 1 C71.35 1 36.7 1 1 1 C1 22.45 1 43.9 1 66 C0.67 66 0.34 66 0 66 C0 44.22 0 22.44 0 0 Z " fill="#C96B60" transform="translate(716,188)"/>
<path d="M0 0 C0.33 0 0.66 0 1 0 C1 128.04 1 256.08 1 388 C-20.78 388.33 -42.56 388.66 -65 389 C-65.03738281 396.90582031 -65.07476563 404.81164062 -65.11328125 412.95703125 C-65.14354628 417.9564023 -65.17468457 422.95573711 -65.20898438 427.95507812 C-65.26337929 435.89556384 -65.31448627 443.83599565 -65.34643555 451.77661133 C-65.37238677 458.17631927 -65.41273102 464.57578747 -65.46318626 470.97534752 C-65.47991045 473.42062086 -65.49139 475.86593571 -65.49761391 478.31125832 C-65.5071946 481.72835229 -65.53518189 485.14482513 -65.56762695 488.56176758 C-65.56619186 489.57956299 -65.56475677 490.5973584 -65.5632782 491.64599609 C-65.57581635 492.57567703 -65.58835449 493.50535797 -65.60127258 494.46321106 C-65.60588155 495.27162351 -65.61049051 496.08003595 -65.61523914 496.91294575 C-66.09625529 499.52211658 -66.89820128 500.42089422 -69 502 C-71.63549805 502.2487793 -71.63549805 502.2487793 -74.76171875 502.07421875 C-75.87998047 502.01943359 -76.99824219 501.96464844 -78.15039062 501.90820312 C-79.31763672 501.83537109 -80.48488281 501.76253906 -81.6875 501.6875 C-83.45577148 501.5956543 -83.45577148 501.5956543 -85.25976562 501.50195312 C-88.17422669 501.34856044 -91.08712459 501.18069004 -94 501 C-94 500.34 -94 499.68 -94 499 C-85.42 499 -76.84 499 -68 499 C-68 461.71 -68 424.42 -68 386 C-45.56 386 -23.12 386 0 386 C0 258.62 0 131.24 0 0 Z " fill="#471C1D" transform="translate(669,356)"/>
<path d="M0 0 C0.33 0 0.66 0 1 0 C1 103.29 1 206.58 1 313 C30.04 313 59.08 313 89 313 C89 313.33 89 313.66 89 314 C77.28279795 314.15357007 65.56554153 314.30175184 53.84818363 314.4429636 C48.40794697 314.50869791 42.9677472 314.57632165 37.52758789 314.64819336 C32.28219179 314.71742364 27.03675691 314.78178238 21.79125786 314.84269524 C19.78527068 314.86685903 17.77930423 314.89280876 15.77336311 314.92053413 C12.97402314 314.95892701 10.17467821 314.99109448 7.37524414 315.02172852 C6.11828735 315.04114754 6.11828735 315.04114754 4.8359375 315.06095886 C2.89060262 315.0790096 0.94489232 315.04524918 -1 315 C-2.95874278 313.04125722 -2.25342269 309.28507668 -2.31297302 306.60473633 C-2.33353402 305.83157011 -2.35409501 305.05840389 -2.37527907 304.2618084 C-2.44152111 301.68115667 -2.49951305 299.10040532 -2.55639648 296.51953125 C-2.57740634 295.62602274 -2.59841619 294.73251423 -2.62006271 293.8119297 C-3.07388017 274.34572534 -3.13280347 254.8848966 -3.10139394 235.41436768 C-3.09497137 230.72872075 -3.09454217 226.04307252 -3.09336853 221.35742188 C-3.09030915 212.55787991 -3.08217178 203.75835096 -3.07201904 194.95881462 C-3.06068618 184.90971243 -3.05530504 174.86060949 -3.05032361 164.81150246 C-3.03998196 144.20766115 -3.02249182 123.60383141 -3 103 C-2.34 103.33 -1.68 103.66 -1 104 C-0.67 69.68 -0.34 35.36 0 0 Z " fill="#431A1D" transform="translate(91,66)"/>
<path d="M0 0 C0.33 0 0.66 0 1 0 C1.12845396 32.83201223 1.25595406 65.66402801 1.38218227 98.49604887 C1.39719668 102.40109315 1.41221895 106.30613741 1.42724609 110.21118164 C1.43023671 110.98837535 1.43322732 111.76556906 1.43630856 112.56631409 C1.48430378 125.03436015 1.53293095 137.50240366 1.58180541 149.9704463 C1.63220525 162.83134181 1.68189419 175.69223994 1.73096704 188.55314058 C1.75844102 195.74841688 1.78622226 202.9436917 1.81480408 210.1389637 C1.82302099 212.2160039 1.83122584 214.29304414 1.83942038 216.37008443 C1.84481627 217.73605143 1.85023189 219.10201835 1.85566753 220.46798519 C1.88426548 227.67673199 1.91036367 234.88547517 1.92946625 242.09425449 C1.93612382 244.58367986 1.94278926 247.0731052 1.94946289 249.56253052 C1.95262276 250.76940779 1.95578263 251.97628506 1.95903826 253.21973437 C1.98052802 260.39332661 2.02499879 267.56633344 2.08912516 274.73966867 C2.12724237 279.18994889 2.15423607 283.64025561 2.17925167 288.0906266 C2.19371244 290.14764728 2.21347723 292.20463843 2.23889256 294.26155293 C2.27296159 297.04693763 2.28898849 299.83186181 2.30065918 302.61741638 C2.31544658 303.43179653 2.33023397 304.24617667 2.34546947 305.085235 C2.3420495 310.49449116 2.3420495 310.49449116 0.65235329 312.99166298 C-7.16455805 317.76187838 -23.46988792 315.03847841 -32.5546875 314.87890625 C-34.19376873 314.85453201 -35.83285799 314.83069248 -37.47195435 314.80735779 C-41.73636188 314.74524178 -46.00062286 314.67597961 -50.26489258 314.60510254 C-54.63616396 314.53375404 -59.00753729 314.46933856 -63.37890625 314.40429688 C-71.91938391 314.27622243 -80.45971906 314.14057977 -89 314 C-89 313.34 -89 312.68 -89 312 C-59.96 311.67 -30.92 311.34 -1 311 C-0.67 208.37 -0.34 105.74 0 0 Z " fill="#290A0E" transform="translate(951,68)"/>
<path d="M0 0 C1.22351166 0.01078583 1.22351166 0.01078583 2.47174072 0.02178955 C3.33034698 0.0214975 4.18895325 0.02120544 5.07357788 0.02090454 C7.91977952 0.02230111 10.76572138 0.03787761 13.61187744 0.05352783 C15.58199928 0.0572568 17.55212296 0.06010432 19.52224731 0.06210327 C24.71400042 0.06974887 29.90564208 0.08940529 35.09735107 0.11151123 C40.39254244 0.13194973 45.68775177 0.14110071 50.98297119 0.15118408 C61.37755148 0.17265032 71.77204895 0.20679741 82.16656494 0.24884033 C82.66156494 1.23884033 82.66156494 1.23884033 83.16656494 2.24884033 C53.79656494 2.24884033 24.42656494 2.24884033 -5.83343506 2.24884033 C-5.83343506 79.79884033 -5.83343506 157.34884033 -5.83343506 237.24884033 C-6.16343506 237.24884033 -6.49343506 237.24884033 -6.83343506 237.24884033 C-6.837667 236.64652305 -6.84189894 236.04420576 -6.84625912 235.42363644 C-6.96804044 218.11650161 -7.0931826 200.80939282 -7.22077268 183.50229996 C-7.24862524 179.72326747 -7.2763768 175.94423429 -7.30388641 172.16519928 C-7.62712054 126.50090896 -7.62712054 126.50090896 -8.15765381 80.83868408 C-8.170501 79.91481085 -8.1833482 78.99093761 -8.1965847 78.03906822 C-8.3124239 69.73872566 -8.43441336 61.43856259 -8.57805157 53.13865185 C-8.8078569 39.69182483 -8.94606256 26.26340324 -8.48187256 12.81915283 C-8.44961578 11.76895966 -8.41735901 10.71876648 -8.38412476 9.63674927 C-8.34338837 8.68647858 -8.30265198 7.73620789 -8.26068115 6.75714111 C-8.22687347 5.92949249 -8.1930658 5.10184387 -8.15823364 4.24911499 C-7.38420556 -0.51774311 -4.06251487 0.01502861 0 0 Z " fill="#2C0B10" transform="translate(96.83343505859375,63.75115966796875)"/>
<path d="M0 0 C0.99 0.495 0.99 0.495 2 1 C1.99962028 1.65606332 1.99924056 2.31212664 1.99884933 2.98807067 C1.9762974 42.18055355 1.9592269 81.37303557 1.94893467 120.56552367 C1.94768449 125.30873779 1.94639012 130.05195191 1.94506836 134.79516602 C1.94480605 135.73915242 1.94454374 136.68313883 1.94427348 137.65573088 C1.93996401 152.7882278 1.93210354 167.92072079 1.9228472 183.05321541 C1.91337737 198.66915109 1.90791677 214.28508477 1.90591151 229.90102321 C1.90468202 238.63487762 1.90178447 247.36872385 1.89426994 256.1025753 C1.8668761 289.10563823 1.89008877 322.10677763 2.35380371 355.10717978 C2.38089151 357.12023124 2.40451385 359.13329595 2.42716968 361.14640176 C2.4710074 364.81083911 2.52791885 368.47481366 2.58937073 372.13899231 C2.60061686 373.22079745 2.611863 374.3026026 2.62344992 375.41718972 C2.64300313 376.39563784 2.66255634 377.37408596 2.68270206 378.38218403 C2.69573118 379.23163949 2.7087603 380.08109496 2.72218424 380.9562915 C2.82042884 383.22403993 2.82042884 383.22403993 5 385 C3.35 385.33 1.7 385.66 0 386 C0 258.62 0 131.24 0 0 Z " fill="#B9685D" transform="translate(373,356)"/>
<path d="M0 0 C22.44 0 44.88 0 68 0 C68 37.29 68 74.58 68 113 C76.91 113 85.82 113 95 113 C95 109.37 95 105.74 95 102 C98.3 102 101.6 102 105 102 C105 102.66 105 103.32 105 104 C102.36 104 99.72 104 97 104 C96.93941406 104.71027344 96.87882812 105.42054688 96.81640625 106.15234375 C96.69072266 107.53099609 96.69072266 107.53099609 96.5625 108.9375 C96.44068359 110.31228516 96.44068359 110.31228516 96.31640625 111.71484375 C96 114 96 114 95 115 C92.9394469 115.09993532 90.8754741 115.13080906 88.8125 115.1328125 C87.55695313 115.13410156 86.30140625 115.13539063 85.0078125 115.13671875 C84.35071289 115.13462402 83.69361328 115.1325293 83.01660156 115.13037109 C81.00838665 115.12502234 79.00039541 115.13031691 76.9921875 115.13671875 C75.73664063 115.13542969 74.48109375 115.13414062 73.1875 115.1328125 C72.02605469 115.13168457 70.86460937 115.13055664 69.66796875 115.12939453 C67 115 67 115 66 114 C65.9043839 112.54518505 65.87811649 111.08574514 65.87974548 109.62779236 C65.87768349 108.21215248 65.87768349 108.21215248 65.87557983 106.76791382 C65.87917511 105.72422638 65.88277039 104.68053894 65.88647461 103.60522461 C65.88632858 102.51267868 65.88618256 101.42013275 65.8860321 100.29447937 C65.88673178 96.66374767 65.89452671 93.03306654 65.90234375 89.40234375 C65.90420774 86.89270557 65.90563173 84.38306702 65.90663147 81.87342834 C65.91006652 75.93065407 65.91795727 69.98789616 65.92798096 64.04513031 C65.94023747 56.61798075 65.94562208 49.19082895 65.95117188 41.76367188 C65.96191189 28.50910527 65.97879918 15.25455379 66 2 C65.20264435 2.00444122 64.4052887 2.00888245 63.58377075 2.01345825 C56.07916722 2.05348833 48.57461527 2.08396056 41.06993294 2.10362434 C37.21145203 2.11407343 33.35305915 2.128253 29.49462891 2.15087891 C25.77287808 2.1725674 22.05121206 2.18456014 18.32940292 2.18975449 C16.90758809 2.19345745 15.48577803 2.20068819 14.06399918 2.21146011 C12.07672886 2.22592119 10.08937369 2.22681646 8.10205078 2.22705078 C6.96953888 2.231492 5.83702698 2.23593323 4.67019653 2.24050903 C2 2 2 2 0 0 Z " fill="#300B0E" transform="translate(373,742)"/>
<path d="M0 0 C0.66 0 1.32 0 2 0 C2 2.64 2 5.28 2 8 C3.8871875 7.690625 3.8871875 7.690625 5.8125 7.375 C9.4014758 6.78664331 9.75073878 6.83382585 13 9 C13.95063395 12.64409679 14.23912545 15.42030426 13 19 C13.99 18.67 14.98 18.34 16 18 C18.0078125 18.26953125 18.0078125 18.26953125 20.125 18.8125 C20.82882812 18.98394531 21.53265625 19.15539062 22.2578125 19.33203125 C24 20 24 20 25 22 C25.06637908 23.47650776 25.06856499 24.95616324 25.03759766 26.43383789 C25.02072906 27.35141373 25.00386047 28.26898956 24.98648071 29.21437073 C24.9625827 30.20710495 24.93868469 31.19983917 24.9140625 32.22265625 C24.89282318 33.23847275 24.87158386 34.25428925 24.84970093 35.30088806 C24.80339708 37.45040445 24.7544655 39.59986559 24.703125 41.74926758 C24.62524457 45.05212806 24.55813666 48.35508529 24.4921875 51.65820312 C24.44595939 53.74220195 24.39910568 55.82618701 24.3515625 57.91015625 C24.33171295 58.9049147 24.3118634 59.89967316 24.29141235 60.92457581 C24.25665298 62.29621132 24.25665298 62.29621132 24.22119141 63.69555664 C24.20263092 64.50448868 24.18407043 65.31342072 24.16494751 66.14686584 C24 68 24 68 23 69 C21.48071962 69.07179964 19.95832518 69.08392007 18.4375 69.0625 C17.19806641 69.04896484 17.19806641 69.04896484 15.93359375 69.03515625 C14.97646484 69.01775391 14.97646484 69.01775391 14 69 C14.48484276 73.64586892 14.48484276 73.64586892 16 78 C15.34 78 14.68 78 14 78 C14 78.66 14 79.32 14 80 C13.01 80 12.02 80 11 80 C10.67 80.66 10.34 81.32 10 82 C7.69 82 5.38 82 3 82 C3.0825 82.9075 3.165 83.815 3.25 84.75 C3 88 3 88 1.58789062 90.17431641 C-2.33795623 92.94389025 -5.96338304 92.53526293 -10.65625 92.4609375 C-11.59553345 92.46002106 -12.53481689 92.45910461 -13.50256348 92.4581604 C-15.48629822 92.45212474 -17.47002387 92.43637979 -19.45361328 92.41162109 C-22.48894864 92.37513285 -25.52306205 92.37060169 -28.55859375 92.37109375 C-30.48698971 92.36126153 -32.4153774 92.34960408 -34.34375 92.3359375 C-35.70481873 92.33259903 -35.70481873 92.33259903 -37.09338379 92.32919312 C-37.94106323 92.31643341 -38.78874268 92.30367371 -39.66210938 92.29052734 C-40.77652405 92.27909195 -40.77652405 92.27909195 -41.91345215 92.26742554 C-44 92 -44 92 -48 90 C-47.67 86.7 -47.34 83.4 -47 80 C-49.97 80 -52.94 80 -56 80 C-56 79.67 -56 79.34 -56 79 C-52.7 79 -49.4 79 -46 79 C-46 82.3 -46 85.6 -46 89 C-30.82 89 -15.64 89 0 89 C0 85.7 0 82.4 0 79 C3.63 79 7.26 79 11 79 C11 75.04 11 71.08 11 67 C14.63 67 18.26 67 22 67 C22 52.15 22 37.3 22 22 C18.37 22 14.74 22 11 22 C11 18.04 11 14.08 11 10 C7.37 10 3.74 10 0 10 C0 6.7 0 3.4 0 0 Z " fill="#033030" transform="translate(544,868)"/>
<path d="M0 0 C28.71 0 57.42 0 87 0 C87 66 87 132 87 200 C86.67 200 86.34 200 86 200 C86 134.66 86 69.32 86 2 C58.28 2 30.56 2 2 2 C2.33 9.92 2.66 17.84 3 26 C2.92620256 31.02774793 2.82113226 35.98788521 2.5625 41 C2.51029297 42.17949219 2.45808594 43.35898438 2.40429688 44.57421875 C2.27868404 47.38337856 2.14413896 50.19174153 2 53 C1.67 53 1.34 53 1 53 C0.67 35.51 0.34 18.02 0 0 Z " fill="#DE7664" transform="translate(92,67)"/>
<path d="M0 0 C0.33 0 0.66 0 1 0 C1 36.3 1 72.6 1 110 C-7.25 110 -15.5 110 -24 110 C-24 106.7 -24 103.4 -24 100 C-27.3 100 -30.6 100 -34 100 C-34 96.37 -34 92.74 -34 89 C-37.96 89 -41.92 89 -46 89 C-46 86.03 -46 83.06 -46 80 C-67.12 80 -88.24 80 -110 80 C-109.505 79.01 -109.505 79.01 -109 78 C-100.82037612 77.95371272 -92.64080673 77.91814928 -84.46108437 77.89637566 C-80.66313688 77.88592679 -76.86527882 77.87174764 -73.06738281 77.84912109 C-69.40398654 77.82743179 -65.74067643 77.81543969 -62.07722092 77.81024551 C-60.67773456 77.80654269 -59.27825305 77.79931223 -57.87880325 77.78853989 C-55.92266669 77.77407775 -53.96644391 77.77318353 -52.01025391 77.77294922 C-50.33813339 77.76628738 -50.33813339 77.76628738 -48.63223267 77.75949097 C-46 78 -46 78 -44 80 C-43.875 83.625 -43.875 83.625 -44 87 C-43.30132813 86.97679687 -42.60265625 86.95359375 -41.8828125 86.9296875 C-40.97273437 86.91164063 -40.06265625 86.89359375 -39.125 86.875 C-38.22007812 86.85179687 -37.31515625 86.82859375 -36.3828125 86.8046875 C-34 87 -34 87 -32 89 C-31.73008094 91.68839385 -31.91262643 94.29141936 -32 97 C-30.35 96.67 -28.7 96.34 -27 96 C-27 96.66 -27 97.32 -27 98 C-25.68 98 -24.36 98 -23 98 C-22.01 102.455 -22.01 102.455 -21 107 C-14.4 107.33 -7.8 107.66 -1 108 C-0.67 72.36 -0.34 36.72 0 0 Z " fill="#D16E61" transform="translate(599,744)"/>
<path d="M0 0 C13.81063047 -0.02740431 27.61631019 0.04382914 41.42578125 0.21875 C43.27906665 0.24128114 45.13235343 0.26369902 46.98564148 0.28601074 C51.78416342 0.34407521 56.58266547 0.40364246 61.38116455 0.46356201 C66.3094368 0.52482294 71.23772695 0.58460835 76.16601562 0.64453125 C85.77736145 0.76160608 95.38868685 0.88027423 105 1 C105.495 1.99 105.495 1.99 106 3 C101.81427148 4.18385888 97.83458713 4.0236899 93.5234375 3.87890625 C91.74284284 3.82992177 89.96224365 3.78110164 88.18164062 3.73242188 C87.23651611 3.70462646 86.2913916 3.67683105 85.31762695 3.64819336 C64.52075757 3.04255981 43.74353118 2.91692726 22.93896484 3.03735352 C21.9093161 3.041548 20.87966736 3.04574249 19.81881714 3.05006409 C17.89262519 3.05811566 15.96644435 3.07040275 14.04031372 3.0877533 C9.891502 3.10357394 6.04485233 3.06465543 2 2 C2.03029297 2.88365234 2.06058594 3.76730469 2.09179688 4.67773438 C2.94941774 31.13203956 3.11295767 57.57954969 3.12338257 84.04537964 C3.12499284 86.73802051 3.12854936 89.43065275 3.13256836 92.12329102 C3.13849676 96.44662323 3.1385969 100.76992024 3.13431931 105.09325409 C3.13333367 106.69821911 3.13388405 108.303186 3.13615799 109.90814972 C3.14787077 119.98505883 2.80630455 129.95262918 2 140 C1.67 140 1.34 140 1 140 C0.82554437 128.1042719 0.65939201 116.20843938 0.5 104.3125 C0.48812275 103.4264143 0.4762455 102.5403286 0.46400833 101.62739182 C0.01287228 67.74925482 -0.12484924 33.8809697 0 0 Z " fill="#DA7060" transform="translate(218,188)"/>
<path d="M0 0 C1.06056862 -0.00197891 1.06056862 -0.00197891 2.14256287 -0.0039978 C4.52346857 -0.00594946 6.90426193 0.00052519 9.28515625 0.0078125 C10.5101181 0.00914185 10.5101181 0.00914185 11.75982666 0.01049805 C34.95995048 0.03960525 58.15473105 0.59879291 81.34765625 1.1328125 C81.34765625 1.4628125 81.34765625 1.7928125 81.34765625 2.1328125 C52.63765625 2.1328125 23.92765625 2.1328125 -5.65234375 2.1328125 C-5.64203125 8.51882812 -5.63171875 14.90484375 -5.62109375 21.484375 C-5.60531804 48.57348684 -5.8514263 75.65917895 -6.11590576 102.74676514 C-6.17783007 109.13845339 -6.23722477 115.53016519 -6.296875 121.921875 C-6.41298294 134.32554417 -6.53174042 146.72918627 -6.65234375 159.1328125 C-6.98234375 159.1328125 -7.31234375 159.1328125 -7.65234375 159.1328125 C-7.78558753 150.42826617 -7.91609276 141.72368418 -8.04349518 133.0190506 C-8.10278961 128.97312975 -8.16288235 124.92722473 -8.22509766 120.88134766 C-8.6884401 90.67240737 -8.83998401 60.48563997 -8.2800293 30.27514648 C-8.21286242 26.58650237 -8.15421713 22.8977749 -8.09570312 19.20898438 C-8.05388982 16.8515535 -8.01159279 14.49413114 -7.96875 12.13671875 C-7.95203751 11.03920792 -7.93532501 9.94169708 -7.91810608 8.81092834 C-7.89816086 7.81314865 -7.87821564 6.81536896 -7.85766602 5.78735352 C-7.84212173 4.90902359 -7.82657745 4.03069366 -7.81056213 3.12574768 C-7.45685101 -1.32963437 -3.68559555 0.00327713 0 0 Z " fill="#300F13" transform="translate(867.65234375,63.8671875)"/>
<path d="M0 0 C6.60252728 0.5871257 13.19721495 0.87869343 19.8203125 1.1171875 C20.95855469 1.16037109 22.09679687 1.20355469 23.26953125 1.24804688 C26.03637746 1.35267551 28.80328976 1.4548564 31.5703125 1.5546875 C31.5703125 1.8846875 31.5703125 2.2146875 31.5703125 2.5546875 C17.0503125 2.5546875 2.5303125 2.5546875 -12.4296875 2.5546875 C-12.4296875 5.8546875 -12.4296875 9.1546875 -12.4296875 12.5546875 C-15.7296875 12.8846875 -19.0296875 13.2146875 -22.4296875 13.5546875 C-22.7596875 17.1846875 -23.0896875 20.8146875 -23.4296875 24.5546875 C-27.0596875 24.5546875 -30.6896875 24.5546875 -34.4296875 24.5546875 C-34.4296875 39.4046875 -34.4296875 54.2546875 -34.4296875 69.5546875 C-30.7996875 69.5546875 -27.1696875 69.5546875 -23.4296875 69.5546875 C-23.4296875 73.1846875 -23.4296875 76.8146875 -23.4296875 80.5546875 C-23.7596875 80.5546875 -24.0896875 80.5546875 -24.4296875 80.5546875 C-24.4296875 77.9146875 -24.4296875 75.2746875 -24.4296875 72.5546875 C-27.7296875 72.5546875 -31.0296875 72.5546875 -34.4296875 72.5546875 C-36.18647522 69.04111206 -36.68383022 67.89130476 -36.80859375 64.25390625 C-36.84275391 63.44115234 -36.87691406 62.62839844 -36.91210938 61.79101562 C-36.95174805 60.5293457 -36.95174805 60.5293457 -36.9921875 59.2421875 C-37.23191859 52.58402213 -37.23191859 52.58402213 -37.94921875 45.96484375 C-38.50169942 42.04357848 -38.57680936 38.25712685 -38.5546875 34.3046875 C-38.55855469 33.59828125 -38.56242187 32.891875 -38.56640625 32.1640625 C-38.56046067 29.02479446 -38.42960234 26.55443201 -37.4296875 23.5546875 C-35.6171875 22.01953125 -35.6171875 22.01953125 -33.4296875 20.4921875 C-30.41340566 18.47514897 -30.41340566 18.47514897 -28.4296875 15.5546875 C-27.7696875 15.5546875 -27.1096875 15.5546875 -26.4296875 15.5546875 C-26.1409375 14.9153125 -25.8521875 14.2759375 -25.5546875 13.6171875 C-24.4296875 11.5546875 -24.4296875 11.5546875 -22.4296875 10.5546875 C-19.7573254 10.42053278 -17.10718262 10.51150209 -14.4296875 10.5546875 C-14.4709375 9.2759375 -14.5121875 7.9971875 -14.5546875 6.6796875 C-14.625 4.5 -14.625 4.5 -14.4296875 2.5546875 C-10.52162776 -1.35337224 -5.15095217 -0.49729097 0 0 Z " fill="#071D26" transform="translate(510.4296875,865.4453125)"/>
<path d="M0 0 C21.12 0 42.24 0 64 0 C64 2.97 64 5.94 64 9 C67.96 9 71.92 9 76 9 C76 12.63 76 16.26 76 20 C75.67 20 75.34 20 75 20 C75 16.7 75 13.4 75 10 C74.01 10.66 73.02 11.32 72 12 C69.28073017 12.4714863 66.72166914 12.45928167 64 12 C62 10.3125 62 10.3125 61 8 C60.96062153 6.3337986 60.95579223 4.66608027 61 3 C54.63188145 3.11846397 48.2639089 3.24326755 41.89599609 3.37231445 C39.73326376 3.41541413 37.57050284 3.45710478 35.40771484 3.49731445 C32.28474339 3.5556272 29.16191255 3.6191402 26.0390625 3.68359375 C24.60719101 3.70866249 24.60719101 3.70866249 23.14639282 3.73423767 C17.05514338 3.86626485 11.05249322 4.3016275 5 5 C4.731875 5.969375 4.46375 6.93875 4.1875 7.9375 C3.795625 8.948125 3.40375 9.95875 3 11 C0.11788698 11.96070434 -1.69850044 12.10581883 -4.6875 12.0625 C-5.89986328 12.04896484 -5.89986328 12.04896484 -7.13671875 12.03515625 C-8.05904297 12.01775391 -8.05904297 12.01775391 -9 12 C-9 14.31 -9 16.62 -9 19 C-9.66 19.33 -10.32 19.66 -11 20 C-11 16.37 -11 12.74 -11 9 C-7.37 9 -3.74 9 0 9 C0 6.03 0 3.06 0 0 Z " fill="#42181A" transform="translate(489,824)"/>
<path d="M0 0 C2.31 0 4.62 0 7 0 C7 49.5 7 99 7 150 C6.34 150 5.68 150 5 150 C4.97494385 149.32533691 4.9498877 148.65067383 4.92407227 147.95556641 C4.8067369 144.84524807 4.68464473 141.73513304 4.5625 138.625 C4.52318359 137.56410156 4.48386719 136.50320313 4.44335938 135.41015625 C4.21590088 129.70619706 3.86823722 124.08614944 3.10131836 118.42724609 C3 116 3 116 3.48657227 113.01185608 C4.20827163 108.14339647 4.13163218 103.2952456 4.11352539 98.38305664 C4.11367142 97.3384024 4.11381744 96.29374817 4.1139679 95.21743774 C4.11327401 91.78165576 4.10550616 88.34592871 4.09765625 84.91015625 C4.09579021 82.52119476 4.09436718 80.13223288 4.09336853 77.74327087 C4.089558 71.46824072 4.07974023 65.19323387 4.06866455 58.91821289 C4.05841893 52.50993159 4.05386416 46.10164651 4.04882812 39.69335938 C4.03811663 27.12889633 4.02125117 14.56444941 4 2 C2.68 2 1.36 2 0 2 C0 1.34 0 0.68 0 0 Z " fill="#DB6D5B" transform="translate(543,526)"/>
<path d="M0 0 C0.33 0 0.66 0 1 0 C1.06058594 1.16917969 1.12117187 2.33835937 1.18359375 3.54296875 C1.26804034 5.09115614 1.35268625 6.63933268 1.4375 8.1875 C1.47681641 8.95642578 1.51613281 9.72535156 1.55664062 10.51757812 C1.59853516 11.26845703 1.64042969 12.01933594 1.68359375 12.79296875 C1.73858032 13.82200317 1.73858032 13.82200317 1.79467773 14.87182617 C1.96211737 17.04511508 1.96211737 17.04511508 2.50447559 19.31643963 C2.99410235 21.96806072 3.12848034 24.37203724 3.13371277 27.06513977 C3.13797775 28.06173615 3.14224274 29.05833252 3.14663696 30.08512878 C3.14618378 31.16732193 3.14573059 32.24951508 3.14526367 33.36450195 C3.14862228 34.51305664 3.1519809 35.66161133 3.15544128 36.8449707 C3.16494187 40.64275188 3.16689399 44.44048893 3.16796875 48.23828125 C3.17118205 50.87997964 3.17454618 53.52167784 3.17805481 56.16337585 C3.1844453 61.70226326 3.18593778 67.24113871 3.18530273 72.7800293 C3.18470245 79.16872451 3.1952468 85.55733515 3.2110464 91.94600898 C3.22573401 98.10601919 3.2292898 104.26598905 3.22869301 110.42601585 C3.22987205 113.04023776 3.23428954 115.65446031 3.24202538 118.26867104 C3.25184033 121.92828987 3.24894103 125.58769201 3.24291992 129.24731445 C3.24853943 130.32343491 3.25415894 131.39955536 3.25994873 132.50828552 C3.25575424 133.51334137 3.25155975 134.51839722 3.24723816 135.5539093 C3.24778293 136.41758779 3.24832769 137.28126627 3.24888897 138.17111683 C2.92578102 141.84357625 1.89414293 145.42342827 1 149 C-11.54 149 -24.08 149 -37 149 C-37 148.67 -37 148.34 -37 148 C-25.12 148 -13.24 148 -1 148 C-0.67 99.16 -0.34 50.32 0 0 Z " fill="#DD705D" transform="translate(589,528)"/>
<path d="M0 0 C2 2 2 2 2.21118164 3.95410156 C2.19434326 4.7581543 2.17750488 5.56220703 2.16015625 6.390625 C2.14287476 7.76939819 2.14287476 7.76939819 2.12524414 9.17602539 C2.10453857 10.19043701 2.08383301 11.20484863 2.0625 12.25 C1.97341044 20.06134904 2.03892725 27.82402499 2.40429688 35.62744141 C3.56067609 60.73586053 2.59132946 85.88525912 2 111 C11.405 110.505 11.405 110.505 21 110 C21 109.34 21 108.68 21 108 C21.66 108 22.32 108 23 108 C22.79375 107.4225 22.5875 106.845 22.375 106.25 C21.89578765 103.37472592 22.33111712 102.36748501 24 100 C26.3828125 99.390625 26.3828125 99.390625 29.125 99.25 C30.03507812 99.19328125 30.94515625 99.1365625 31.8828125 99.078125 C32.58148438 99.05234375 33.28015625 99.0265625 34 99 C33.67 97.68 33.34 96.36 33 95 C33.66 95 34.32 95 35 95 C35 93.35 35 91.7 35 90 C38.63 90 42.26 90 46 90 C46.495 88.02 46.495 88.02 47 86 C47 87.65 47 89.3 47 91 C43.37 91 39.74 91 36 91 C36 94.63 36 98.26 36 102 C32.37 102 28.74 102 25 102 C25 105.3 25 108.6 25 112 C16.75 112 8.5 112 0 112 C0 75.04 0 38.08 0 0 Z " fill="#D76D5A" transform="translate(442,742)"/>
<path d="M0 0 C0 0.99 0 1.98 0 3 C-12.87 3 -25.74 3 -39 3 C-39 40.29 -39 77.58 -39 116 C-47.58 116 -56.16 116 -65 116 C-65 115.67 -65 115.34 -65 115 C-56.75 115 -48.5 115 -40 115 C-40.66 113.68 -41.32 112.36 -42 111 C-42.24609566 108.80551529 -42.24609566 108.80551529 -42.24050903 106.38092041 C-42.24325836 105.45827896 -42.24600769 104.53563751 -42.24884033 103.58503723 C-42.24164978 102.58018784 -42.23445923 101.57533844 -42.22705078 100.54003906 C-42.22734283 99.47631577 -42.22763489 98.41259247 -42.22793579 97.31663513 C-42.2265421 93.79954887 -42.21097882 90.28267427 -42.1953125 86.765625 C-42.19158252 84.32753617 -42.18873547 81.88944584 -42.18673706 79.45135498 C-42.17909948 73.03322209 -42.15944982 66.61517966 -42.1373291 60.19708252 C-42.11687342 53.64832788 -42.10773593 47.09955863 -42.09765625 40.55078125 C-42.07620414 27.70048223 -42.04245085 14.85024593 -42 2 C-38.08002063 1.15772464 -34.57902925 0.92570582 -30.5625 1 C-24.40509013 1.05163446 -18.35768182 0.71373496 -12.22265625 0.22265625 C-8.1325947 -0.05992982 -4.09778526 -0.07065147 0 0 Z " fill="#A95147" transform="translate(640,739)"/>
<path d="M0 0 C0.33 0 0.66 0 1 0 C1 5.28 1 10.56 1 16 C1.66 16.33 2.32 16.66 3 17 C2.73761154 23.51058966 2.47058122 30.02097748 2.20043945 36.53125 C2.10922017 38.74246995 2.0190337 40.95373278 1.92993164 43.16503906 C1.8011088 46.35754242 1.66847802 49.54986923 1.53515625 52.7421875 C1.47727684 54.20686966 1.47727684 54.20686966 1.41822815 55.70114136 C1.15772544 61.82960128 0.6802688 67.90379892 0 74 C0.66 74.33 1.32 74.66 2 75 C1.67 80.94 1.34 86.88 1 93 C11.89 93 22.78 93 34 93 C34 85.41 34 77.82 34 70 C34.33 70 34.66 70 35 70 C35 78.25 35 86.5 35 95 C23.12 95 11.24 95 -1 95 C-1.13774552 63.31853094 -0.75016833 31.67266541 0 0 Z " fill="#D77163" transform="translate(717,511)"/>
<path d="M0 0 C0.33 0 0.66 0 1 0 C1.07596686 6.63851606 1.12856456 13.27692035 1.16479492 19.91577148 C1.17989602 22.17492868 1.20037842 24.43405649 1.22631836 26.69311523 C1.26264308 29.93741093 1.27971308 33.18131956 1.29296875 36.42578125 C1.30845261 37.43836502 1.32393646 38.45094879 1.33988953 39.49421692 C1.34011612 40.43496567 1.34034271 41.37571442 1.34057617 42.3449707 C1.35056892 43.58740288 1.35056892 43.58740288 1.36076355 44.85493469 C1 47 1 47 -0.14064026 48.74749756 C-7.70582647 53.84356046 -24.51632829 51.0376627 -33.5546875 50.87890625 C-35.19376873 50.85453201 -36.83285799 50.83069248 -38.47195435 50.80735779 C-42.73636188 50.74524178 -47.00062286 50.67597961 -51.26489258 50.60510254 C-55.63616396 50.53375404 -60.00753729 50.46933856 -64.37890625 50.40429688 C-72.91938391 50.27622243 -81.45971906 50.14057977 -90 50 C-90 49.34 -90 48.68 -90 48 C-88.89974991 47.98969254 -87.79949982 47.97938507 -86.66590881 47.96876526 C-76.32071326 47.87120698 -65.97558023 47.76849005 -55.63048649 47.66066074 C-50.31137779 47.60538593 -44.99226365 47.55195878 -39.6730957 47.50268555 C-34.54431133 47.45510906 -29.4155961 47.40276896 -24.28689384 47.34705925 C-22.32560372 47.32660516 -20.36429462 47.30789725 -18.40297127 47.29092598 C-15.66579416 47.26694931 -12.928749 47.23688596 -10.19165039 47.20532227 C-9.37238068 47.1995668 -8.55311096 47.19381134 -7.70901489 47.18788147 C-4.05336705 47.48227006 -4.05336705 47.48227006 -1 46 C-0.87778475 44.55815707 -0.82227242 43.11056856 -0.79467773 41.66381836 C-0.77473251 40.7429393 -0.75478729 39.82206024 -0.73423767 38.87327576 C-0.71752518 37.87224319 -0.70081268 36.87121063 -0.68359375 35.83984375 C-0.6524221 34.31043907 -0.6524221 34.31043907 -0.62062073 32.75013733 C-0.55501148 29.47932952 -0.49618766 26.20843863 -0.4375 22.9375 C-0.39432558 20.72590272 -0.35071166 18.51431397 -0.30664062 16.30273438 C-0.1993186 10.86857849 -0.09757377 5.43433918 0 0 Z " fill="#1E0F18" transform="translate(952,332)"/>
<path d="M0 0 C27.72 0.33 55.44 0.66 84 1 C84 1.33 84 1.66 84 2 C57.27 2 30.54 2 3 2 C3 8.93 3 15.86 3 23 C2.67 23 2.34 23 2 23 C1.67 53.69 1.34 84.38 1 116 C0.67 116 0.34 116 0 116 C0 77.72 0 39.44 0 0 Z " fill="#381519" transform="translate(585,354)"/>
<path d="M0 0 C1.78409802 3.06246747 2.22880021 5.22079273 2.125 8.75 C2.10695313 9.54921875 2.08890625 10.3484375 2.0703125 11.171875 C2.03550781 12.07679688 2.03550781 12.07679688 2 13 C3.04800781 13.09087891 3.04800781 13.09087891 4.1171875 13.18359375 C5.02726562 13.26738281 5.93734375 13.35117187 6.875 13.4375 C7.77992188 13.51871094 8.68484375 13.59992187 9.6171875 13.68359375 C12 14 12 14 14 15 C13.67 17.64 13.34 20.28 13 23 C26.53 23 40.06 23 54 23 C53.67 21.35 53.34 19.7 53 18 C53.66 16.35 54.32 14.7 55 13 C58.63 12.67 62.26 12.34 66 12 C66.33 9.03 66.66 6.06 67 3 C67.33 3 67.66 3 68 3 C68 6.96 68 10.92 68 15 C64.37 15 60.74 15 57 15 C57 18.3 57 21.6 57 25 C41.82 25 26.64 25 11 25 C11 21.7 11 18.4 11 15 C7.37 15 3.74 15 0 15 C0 11.04 0 7.08 0 3 C-2.64 3 -5.28 3 -8 3 C-8.33 2.34 -8.66 1.68 -9 1 C-5.92677456 0.08941469 -3.19902639 -0.08886184 0 0 Z " fill="#36A995" transform="translate(487,932)"/>
<path d="M0 0 C0 0.99 0 1.98 0 3 C-7.64076218 3.0694906 -15.28149162 3.1228064 -22.92249775 3.15543652 C-26.47049936 3.17109693 -30.01828487 3.19234151 -33.56616211 3.22631836 C-37.64438967 3.26513007 -41.72239001 3.27970602 -45.80078125 3.29296875 C-47.07585037 3.30845261 -48.35091949 3.32393646 -49.66462708 3.33988953 C-50.84562485 3.34011612 -52.02662262 3.34034271 -53.2434082 3.34057617 C-54.80560844 3.35056892 -54.80560844 3.35056892 -56.39936829 3.36076355 C-59.34050646 2.95276443 -60.21680171 2.31258565 -62 0 C-41.3075147 -1.43544455 -20.70742794 -0.69344489 0 0 Z " fill="#CC6759" transform="translate(441,739)"/>
<path d="M0 0 C0.33 0 0.66 0 1 0 C1.33 25.41 1.66 50.82 2 77 C14.54 77.33 27.08 77.66 40 78 C40 78.33 40 78.66 40 79 C34.32169922 79.02464705 28.64342931 79.04283462 22.96508789 79.05493164 C21.03181415 79.05997256 19.09854424 79.06680519 17.1652832 79.07543945 C14.39273128 79.08751565 11.62022959 79.09323057 8.84765625 79.09765625 C7.54297142 79.10539818 7.54297142 79.10539818 6.21192932 79.11329651 C4.14094186 79.11349185 2.07005676 79.06208168 0 79 C-2.16164664 76.83835336 -1.28533749 71.88854115 -1.3515625 68.8828125 C-1.37471527 67.95588593 -1.39786804 67.02895935 -1.42172241 66.07394409 C-1.46948034 64.10176294 -1.51469949 62.12951898 -1.55761719 60.15722656 C-1.62394972 57.17226241 -1.70202913 54.18777133 -1.78125 51.203125 C-1.82624208 49.28387094 -1.87053379 47.36460031 -1.9140625 45.4453125 C-1.93796051 44.56465118 -1.96185852 43.68398987 -1.98648071 42.77664185 C-2.09457033 37.28627028 -1.79773269 31.94013003 -1.24572754 26.47711182 C-0.9548499 23.54485423 -0.79745529 20.61991527 -0.68359375 17.67578125 C-0.62075195 16.10473633 -0.62075195 16.10473633 -0.55664062 14.50195312 C-0.51732422 13.44943359 -0.47800781 12.39691406 -0.4375 11.3125 C-0.39431641 10.21744141 -0.35113281 9.12238281 -0.30664062 7.99414062 C-0.20191731 5.32951403 -0.09974221 2.66481689 0 0 Z " fill="#270B0F" transform="translate(714,529)"/>
<path d="M0 0 C3.3 0 6.6 0 10 0 C10 3.3 10 6.6 10 10 C25.18 10 40.36 10 56 10 C56 6.7 56 3.4 56 0 C58.97 0 61.94 0 65 0 C65 0.33 65 0.66 65 1 C62.36 1 59.72 1 57 1 C57.02320313 1.69867187 57.04640625 2.39734375 57.0703125 3.1171875 C57.08835937 4.02726563 57.10640625 4.93734375 57.125 5.875 C57.14820313 6.77992188 57.17140625 7.68484375 57.1953125 8.6171875 C57 11 57 11 55 13 C53.15396118 13.25396729 53.15396118 13.25396729 50.88916016 13.25878906 C49.6174144 13.26824554 49.6174144 13.26824554 48.31997681 13.27789307 C46.94342422 13.27182037 46.94342422 13.27182037 45.5390625 13.265625 C44.59694916 13.26753845 43.65483582 13.2694519 42.68417358 13.27142334 C40.68853489 13.27278599 38.69288735 13.26908401 36.69726562 13.26074219 C33.6443278 13.25006758 30.59198164 13.26062253 27.5390625 13.2734375 C25.6015612 13.27211545 23.66406027 13.26955212 21.7265625 13.265625 C20.81290924 13.26967346 19.89925598 13.27372192 18.95791626 13.27789307 C18.10378143 13.27158875 17.24964661 13.26528442 16.36962891 13.25878906 C15.62065338 13.25719788 14.87167786 13.25560669 14.1000061 13.25396729 C12 13 12 13 8 11 C8.33 7.7 8.66 4.4 9 1 C6.03 1 3.06 1 0 1 C0 0.67 0 0.34 0 0 Z " fill="#0C4544" transform="translate(488,947)"/>
<path d="M0 0 C0.33 0 0.66 0 1 0 C1.66730827 12.83907512 2.0909854 25.66358999 2.24609375 38.51953125 C2.26290305 39.86188769 2.27971826 41.20424405 2.29653931 42.54660034 C2.36381472 48.04784696 2.4265465 53.54910686 2.47680664 59.05053711 C2.50238437 61.81394895 2.53311122 64.57721057 2.56959534 67.34049988 C2.60333386 69.91455427 2.62928857 72.48872517 2.64659119 75.0629425 C2.66323318 76.2098204 2.67987518 77.3566983 2.69702148 78.53833008 C2.70732895 79.54817459 2.71763641 80.5580191 2.72825623 81.59846497 C2.7681734 84.18358554 2.7681734 84.18358554 5 86 C2.525 86.495 2.525 86.495 0 87 C0 58.29 0 29.58 0 0 Z " fill="#C56C62" transform="translate(373,655)"/>
<path d="M0 0 C15.18 0 30.36 0 46 0 C46 3.3 46 6.6 46 10 C43 7 43 7 42 3 C29.46 3 16.92 3 4 3 C4 4.98 4 6.96 4 9 C3.34 9.66 2.68 10.32 2 11 C1.34 10.67 0.68 10.34 0 10 C0 6.7 0 3.4 0 0 Z " fill="#2EA08D" transform="translate(498,868)"/>
<path d="M0 0 C34.65 0 69.3 0 105 0 C105 0.66 105 1.32 105 2 C99.80041669 3.12766658 95.07002783 2.92918871 89.81347656 2.58227539 C79.86695057 2.00673891 69.9454273 1.78694757 59.984375 1.68359375 C58.26417651 1.66293276 56.54398203 1.64193462 54.8237915 1.62062073 C50.37218559 1.56634096 45.92054143 1.51653126 41.46887207 1.46777344 C36.89588153 1.41685521 32.32294414 1.36154251 27.75 1.30664062 C18.8333791 1.20021651 9.91671136 1.09853225 1 1 C0.67 2.32 0.34 3.64 0 5 C0 3.35 0 1.7 0 0 Z " fill="#E37160" transform="translate(717,189)"/>
<path d="M0 0 C20.79 0 41.58 0 63 0 C63 0.33 63 0.66 63 1 C57.20579587 1.14526075 51.41152775 1.28752037 45.6171875 1.42724609 C43.6546032 1.47496559 41.69203713 1.52344207 39.72949219 1.57275391 C27.14833924 1.88824853 14.58534739 2.05184489 2 2 C1.67 12.89 1.34 23.78 1 35 C0.67 35 0.34 35 0 35 C0 23.45 0 11.9 0 0 Z " fill="#DC715F" transform="translate(479,526)"/>
<path d="M0 0 C6.60252728 0.5871257 13.19721495 0.87869343 19.8203125 1.1171875 C20.95855469 1.16037109 22.09679687 1.20355469 23.26953125 1.24804688 C26.03637746 1.35267551 28.80328976 1.4548564 31.5703125 1.5546875 C31.5703125 1.8846875 31.5703125 2.2146875 31.5703125 2.5546875 C17.0503125 2.5546875 2.5303125 2.5546875 -12.4296875 2.5546875 C-12.4296875 5.8546875 -12.4296875 9.1546875 -12.4296875 12.5546875 C-15.7296875 12.5546875 -19.0296875 12.5546875 -22.4296875 12.5546875 C-22.4296875 11.8946875 -22.4296875 11.2346875 -22.4296875 10.5546875 C-19.7896875 10.5546875 -17.1496875 10.5546875 -14.4296875 10.5546875 C-14.4709375 9.2759375 -14.5121875 7.9971875 -14.5546875 6.6796875 C-14.625 4.5 -14.625 4.5 -14.4296875 2.5546875 C-10.52162776 -1.35337224 -5.15095217 -0.49729097 0 0 Z " fill="#023536" transform="translate(510.4296875,865.4453125)"/>
<path d="M0 0 C3.63 0 7.26 0 11 0 C11 3.96 11 7.92 11 12 C14.63 12 18.26 12 22 12 C22 26.85 22 41.7 22 57 C21.67 57 21.34 57 21 57 C20.97494385 55.94087402 20.9498877 54.88174805 20.92407227 53.79052734 C20.82956076 49.84314873 20.72944865 45.89592824 20.62768555 41.94873047 C20.58450154 40.2436901 20.54281553 38.53861108 20.50268555 36.83349609 C20.44458028 34.37585833 20.38100414 31.91841216 20.31640625 29.4609375 C20.29969376 28.70444916 20.28298126 27.94796082 20.26576233 27.16854858 C20.15109247 23.02740613 19.79041337 19.06739407 19 15 C17.700625 14.855625 16.40125 14.71125 15.0625 14.5625 C11.125 14.125 11.125 14.125 10 13 C9.92755947 10.98035801 9.91622812 8.95832876 9.9375 6.9375 C9.94652344 5.83277344 9.95554687 4.72804688 9.96484375 3.58984375 C9.97644531 2.73519531 9.98804688 1.88054688 10 1 C6.7 1 3.4 1 0 1 C0 0.67 0 0.34 0 0 Z " fill="#329686" transform="translate(544,878)"/>
<path d="M0 0 C3.96 0 7.92 0 12 0 C8.00889681 1.9955516 6.30013434 2.19546065 2 2 C2 5.3 2 8.6 2 12 C0 13 0 13 -10 12 C-10 26.52 -10 41.04 -10 56 C-10.33 56 -10.66 56 -11 56 C-11 41.15 -11 26.3 -11 11 C-7.37 11 -3.74 11 0 11 C0 7.37 0 3.74 0 0 Z " fill="#2F9889" transform="translate(487,879)"/>
<path d="M0 0 C0.33 0 0.66 0 1 0 C1 14.85 1 29.7 1 45 C4.63 45 8.26 45 12 45 C12 48.63 12 52.26 12 56 C11.67 56 11.34 56 11 56 C11 53.36 11 50.72 11 48 C7.7 48 4.4 48 1 48 C-0.85761117 44.28477767 -1.24554818 43.34507673 -1.13525391 39.50683594 C-1.11508209 38.62622498 -1.09491028 37.74561401 -1.0741272 36.83831787 C-1.04193085 35.89651672 -1.0097345 34.95471558 -0.9765625 33.984375 C-0.95153656 33.01340881 -0.92651062 32.04244263 -0.90072632 31.04205322 C-0.81863039 27.94434155 -0.722 24.84727731 -0.625 21.75 C-0.56674984 19.64846385 -0.50944679 17.54690122 -0.453125 15.4453125 C-0.31306686 10.2965034 -0.15997316 5.14822727 0 0 Z " fill="#033B3A" transform="translate(475,890)"/>
<path d="M0 0 C3.3 0 6.6 0 10 0 C10 0.66 10 1.32 10 2 C7.36 2 4.72 2 2 2 C1.90912109 3.06541016 1.90912109 3.06541016 1.81640625 4.15234375 C1.73261719 5.07144531 1.64882813 5.99054687 1.5625 6.9375 C1.48128906 7.85402344 1.40007812 8.77054688 1.31640625 9.71484375 C1 12 1 12 0 13 C-1.92667507 13.08748207 -3.85651861 13.10697334 -5.78515625 13.09765625 C-6.95498047 13.09443359 -8.12480469 13.09121094 -9.33007812 13.08789062 C-11.17762695 13.07532227 -11.17762695 13.07532227 -13.0625 13.0625 C-14.91584961 13.05573242 -14.91584961 13.05573242 -16.80664062 13.04882812 C-19.87114117 13.03699608 -22.93554721 13.02051173 -26 13 C-26 12.34 -26 11.68 -26 11 C-17.42 11 -8.84 11 0 11 C0 7.37 0 3.74 0 0 Z " fill="#310D12" transform="translate(468,844)"/>
<path d="M0 0 C0.33 0 0.66 0 1 0 C1.1674126 5.51740298 1.32799286 11.03494587 1.48217773 16.55273438 C1.53562556 18.43071883 1.59095705 20.30865063 1.64819336 22.18652344 C1.7300268 24.88204596 1.80513683 27.57768375 1.87890625 30.2734375 C1.90594131 31.11619232 1.93297638 31.95894714 1.96083069 32.82723999 C2.11387171 38.77225659 2.11387171 38.77225659 1 41 C-11.54 41 -24.08 41 -37 41 C-37 40.67 -37 40.34 -37 40 C-25.12 40 -13.24 40 -1 40 C-0.67 26.8 -0.34 13.6 0 0 Z " fill="#CA6C5C" transform="translate(589,636)"/>
<path d="M0 0 C0.495 0.99 0.495 0.99 1 2 C-1.95667697 2.8604464 -4.51151072 3.0994281 -7.58496094 3.02172852 C-8.93590851 2.99158409 -8.93590851 2.99158409 -10.31414795 2.96083069 C-11.75966034 2.92027809 -11.75966034 2.92027809 -13.234375 2.87890625 C-14.22753723 2.85529526 -15.22069946 2.83168427 -16.24395752 2.80735779 C-19.41278838 2.73084932 -22.58136696 2.6467696 -25.75 2.5625 C-27.89972728 2.5092665 -30.04946684 2.45652619 -32.19921875 2.40429688 C-37.46630158 2.27525153 -42.73319735 2.13999115 -48 2 C-48 1.67 -48 1.34 -48 1 C-31.99927319 -0.11586638 -16.03391014 -0.10778821 0 0 Z " fill="#E26C5A" transform="translate(323,189)"/>
<path d="M0 0 C12.54 0 25.08 0 38 0 C38 0.66 38 1.32 38 2 C33.71378751 2.19362767 29.42728051 2.3721176 25.13989258 2.53710938 C23.68399511 2.59520971 22.22825137 2.65731493 20.77270508 2.72363281 C18.67036983 2.81870244 16.56788763 2.89895595 14.46484375 2.9765625 C13.202771 3.02893066 11.94069824 3.08129883 10.64038086 3.13525391 C6.68464204 2.98828326 3.73701364 2.23374084 0 1 C0 0.67 0 0.34 0 0 Z " fill="#CD6A5B" transform="translate(440,676)"/>
<path d="M0 0 C3.63 0 7.26 0 11 0 C11 0.33 11 0.66 11 1 C7.7 1 4.4 1 1 1 C1.4794463 5.21912747 2.16625119 7.79663178 5 11 C4.34 11 3.68 11 3 11 C3 11.66 3 12.32 3 13 C2.01 13 1.02 13 0 13 C-0.33 13.66 -0.66 14.32 -1 15 C-3.31 15 -5.62 15 -8 15 C-7.938125 16.423125 -7.938125 16.423125 -7.875 17.875 C-8 21 -8 21 -10 23 C-10 19.7 -10 16.4 -10 13 C-6.7 12.67 -3.4 12.34 0 12 C0 8.04 0 4.08 0 0 Z " fill="#082F31" transform="translate(555,935)"/>
<path d="M0 0 C0 0.99 0 1.98 0 3 C-12.87 3 -25.74 3 -39 3 C-39 2.67 -39 2.34 -39 2 C-34.89260233 1.7111956 -30.78493894 1.42653945 -26.67700195 1.14550781 C-25.28337089 1.04960617 -23.88981352 0.95262659 -22.49633789 0.85449219 C-14.98957711 0.32656786 -7.52908505 -0.13340572 0 0 Z " fill="#C2695C" transform="translate(640,739)"/>
<path d="M0 0 C4.50627151 6.75940727 2.07628347 17.85840944 1.21875 25.6953125 C0.93700628 28.27784291 0.93700628 28.27784291 1 32 C0.69169075 34.00401011 0.36270588 36.00511766 0 38 C-0.33 38 -0.66 38 -1 38 C-1.22686164 25.32095475 -0.55656506 12.66333533 0 0 Z " fill="#1C2233" transform="translate(444,479)"/>
<path d="M0 0 C1.55976964 0.10476065 3.11966611 0.20765119 4.6796875 0.30859375 C5.80262207 0.38182861 5.80262207 0.38182861 6.94824219 0.45654297 C8.98668701 0.5557674 11.02950317 0.54930047 13.0703125 0.53515625 C16.125 0.5625 16.125 0.5625 18.125 1.5625 C18.125 2.2225 18.125 2.8825 18.125 3.5625 C13.72892744 3.42337529 9.33321277 3.27503197 4.9375 3.125 C3.69162109 3.08568359 2.44574219 3.04636719 1.16210938 3.00585938 C-0.6409668 2.94301758 -0.6409668 2.94301758 -2.48046875 2.87890625 C-4.13792114 2.82391968 -4.13792114 2.82391968 -5.82885742 2.76782227 C-8.60092972 2.58097344 -11.17042873 2.18087634 -13.875 1.5625 C-13.875 1.2325 -13.875 0.9025 -13.875 0.5625 C-9.16925535 -0.71315367 -4.80008702 -0.34286336 0 0 Z " fill="#041F27" transform="translate(525.875,864.4375)"/>
<path d="M0 0 C0.33 0 0.66 0 1 0 C1 3.96 1 7.92 1 12 C-2.63 12 -6.26 12 -10 12 C-10 15.3 -10 18.6 -10 22 C-10.33 22 -10.66 22 -11 22 C-11.144375 20.88625 -11.28875 19.7725 -11.4375 18.625 C-11.78372035 15.17857953 -11.78372035 15.17857953 -13 13 C-12.67 12.01 -12.34 11.02 -12 10 C-6.555 9.505 -6.555 9.505 -1 9 C-0.67 6.03 -0.34 3.06 0 0 Z " fill="#329687" transform="translate(554,935)"/>
<path d="M0 0 C0.66 0 1.32 0 2 0 C2.22786458 2.05078125 2.45572917 4.1015625 2.68359375 6.15234375 C2.81886614 8.01140229 2.81886614 8.01140229 4 9 C5.51469448 9.23192865 7.03754562 9.41215238 8.5625 9.5625 C9.38878906 9.64628906 10.21507812 9.73007812 11.06640625 9.81640625 C11.70449219 9.87699219 12.34257812 9.93757812 13 10 C13 11.65 13 13.3 13 15 C12.67 13.68 12.34 12.36 12 11 C10.6696875 11.556875 10.6696875 11.556875 9.3125 12.125 C5.5668343 13.11442113 4.35926625 12.72762264 1 11 C0.67 11 0.34 11 0 11 C0 7.37 0 3.74 0 0 Z " fill="#051C25" transform="translate(484,938)"/>
<path d="M0 0 C0.33 0 0.66 0 1 0 C1 1.65 1 3.3 1 5 C-2.63 5 -6.26 5 -10 5 C-10 8.63 -10 12.26 -10 16 C-13.3 16 -16.6 16 -20 16 C-20 15.67 -20 15.34 -20 15 C-17.36 15 -14.72 15 -12 15 C-12.33 13.02 -12.66 11.04 -13 9 C-12.34 9 -11.68 9 -11 9 C-11 7.35 -11 5.7 -11 4 C-7.37 4 -3.74 4 0 4 C0 2.68 0 1.36 0 0 Z " fill="#BC665D" transform="translate(488,828)"/>
<path d="M0 0 C1.485 0.99 1.485 0.99 3 2 C3 2.99 3 3.98 3 5 C5.64738916 6.4606285 6.89448334 7 10 7 C10 7.66 10 8.32 10 9 C6.7 9.33 3.4 9.66 0 10 C0 6.7 0 3.4 0 0 Z " fill="#D96852" transform="translate(219,514)"/>
<path d="M0 0 C2 2 2 2 2 6 C2.69867187 5.97679687 3.39734375 5.95359375 4.1171875 5.9296875 C5.02726563 5.91164063 5.93734375 5.89359375 6.875 5.875 C7.77992188 5.85179687 8.68484375 5.82859375 9.6171875 5.8046875 C12 6 12 6 14 8 C13.67 8.99 13.34 9.98 13 11 C12.67 10.01 12.34 9.02 12 8 C8.04 8 4.08 8 0 8 C0 5.36 0 2.72 0 0 Z " fill="#C6675B" transform="translate(553,825)"/>
<path d="M0 0 C0.33 0 0.66 0 1 0 C1 1.65 1 3.3 1 5 C4.96 5 8.92 5 13 5 C13 8.63 13 12.26 13 16 C12.67 16 12.34 16 12 16 C12 12.7 12 9.4 12 6 C11.01 6.66 10.02 7.32 9 8 C6.19409764 8.42783066 3.8766685 8.22830702 1 8 C-1 5 -1 5 -0.625 2.3125 C-0.41875 1.549375 -0.2125 0.78625 0 0 Z " fill="#4C2021" transform="translate(552,828)"/>
<path d="M0 0 C0 0.66 0 1.32 0 2 C-2.64 2.33 -5.28 2.66 -8 3 C-8.66 5.64 -9.32 8.28 -10 11 C-11.98 11.33 -13.96 11.66 -16 12 C-15.01 11.67 -14.02 11.34 -13 11 C-13 10.34 -13 9.68 -13 9 C-12.34 9 -11.68 9 -11 9 C-11.20625 8.4225 -11.4125 7.845 -11.625 7.25 C-12 5 -12 5 -11.375 2.8125 C-10 1 -10 1 -7.6875 0.25 C-5.10312972 0.00959346 -2.59370138 -0.07410575 0 0 Z " fill="#DE6C58" transform="translate(476,841)"/>
<path d="M0 0 C3.3 0 6.6 0 10 0 C10.33 3.3 10.66 6.6 11 10 C12.98 10.66 14.96 11.32 17 12 C17 12.33 17 12.66 17 13 C9.125 12.125 9.125 12.125 8 11 C8.08963062 9.30858344 8.24577676 7.62040398 8.4375 5.9375 C8.53933594 5.01839844 8.64117187 4.09929688 8.74609375 3.15234375 C8.82988281 2.44207031 8.91367187 1.73179687 9 1 C6.03 1 3.06 1 0 1 C0 0.67 0 0.34 0 0 Z " fill="#063739" transform="translate(488,947)"/>
<path d="M0 0 C6.45217391 0.60869565 6.45217391 0.60869565 8.75 2.25 C10.43817267 4.61344174 10.13802396 5.8614861 9.6875 8.6875 C9.50767578 9.89986328 9.50767578 9.89986328 9.32421875 11.13671875 C9.21722656 11.75160156 9.11023438 12.36648438 9 13 C8.67 13 8.34 13 8 13 C7.77213542 10.94921875 7.54427083 8.8984375 7.31640625 6.84765625 C7.18113386 4.98859771 7.18113386 4.98859771 6 4 C3.67182036 3.63239269 1.3381615 3.29758419 -1 3 C-0.67 2.01 -0.34 1.02 0 0 Z " fill="#06181F" transform="translate(559,886)"/>
<path d="M0 0 C3.3 0 6.6 0 10 0 C10 0.66 10 1.32 10 2 C7.36 2 4.72 2 2 2 C1.67 4.97 1.34 7.94 1 11 C0.67 11 0.34 11 0 11 C0 7.37 0 3.74 0 0 Z " fill="#3F1415" transform="translate(468,844)"/>
<path d="M0 0 C2.13262124 3.19893186 2.59021548 5.22998243 3 9 C2.67 9.33 2.34 9.66 2 10 C1.76712992 11.68183948 1.58735834 13.3712416 1.4375 15.0625 C1.31181641 16.44115234 1.31181641 16.44115234 1.18359375 17.84765625 C1.12300781 18.55792969 1.06242188 19.26820313 1 20 C0.34 19.67 -0.32 19.34 -1 19 C-1.12543554 11.4738676 -1.12543554 11.4738676 -0.4375 8.875 C0.20118827 6.13776456 -0.51341107 3.73706274 -1 1 C-0.67 0.67 -0.34 0.34 0 0 Z " fill="#E06C58" transform="translate(666,542)"/>
<path d="M0 0 C-4.74210832 2.90287939 -8.65667048 1.70306967 -14 1 C-14 6.94 -14 12.88 -14 19 C-14.33 19 -14.66 19 -15 19 C-15 12.73 -15 6.46 -15 0 C-4.28571429 -1.28571429 -4.28571429 -1.28571429 0 0 Z " fill="#E06851" transform="translate(605,358)"/>
<path d="M0 0 C0.33 0 0.66 0 1 0 C1 1.65 1 3.3 1 5 C-2.63 5 -6.26 5 -10 5 C-10 7.31 -10 9.62 -10 12 C-10.66 11.67 -11.32 11.34 -12 11 C-11.67 8.69 -11.34 6.38 -11 4 C-10.28972656 3.87882813 -9.57945312 3.75765625 -8.84765625 3.6328125 C-7.92855469 3.46523438 -7.00945313 3.29765625 -6.0625 3.125 C-5.14597656 2.96257813 -4.22945312 2.80015625 -3.28515625 2.6328125 C-2.53105469 2.42398438 -1.77695312 2.21515625 -1 2 C-0.67 1.34 -0.34 0.68 0 0 Z " fill="#34AC96" transform="translate(564,930)"/>
<path d="M0 0 C3.3 0 6.6 0 10 0 C10 3.3 10 6.6 10 10 C9.34 10 8.68 10 8 10 C8.0309375 8.5459375 8.0309375 8.5459375 8.0625 7.0625 C8.35618499 4.12534105 8.35618499 4.12534105 7 3 C4.67182036 2.63239269 2.3381615 2.29758419 0 2 C0 1.34 0 0.68 0 0 Z " fill="#32B09B" transform="translate(544,879)"/>
<path d="M0 0 C0.33 0 0.66 0 1 0 C1 2.97 1 5.94 1 9 C-2.63 9 -6.26 9 -10 9 C-9.67 8.34 -9.34 7.68 -9 7 C-6.93359375 6.3671875 -6.93359375 6.3671875 -4.4375 5.875 C-3.61121094 5.70742188 -2.78492188 5.53984375 -1.93359375 5.3671875 C-0.97646484 5.18542969 -0.97646484 5.18542969 0 5 C0 3.35 0 1.7 0 0 Z " fill="#043938" transform="translate(486,881)"/>
<path d="M0 0 C0.33 0 0.66 0 1 0 C2.31604538 15.4165316 2.31604538 15.4165316 2 21 C1.34 21.66 0.68 22.32 0 23 C-1.14500285 15.19636521 -0.79773542 7.83007996 0 0 Z " fill="#1A2333" transform="translate(604,810)"/>
<path d="M0 0 C2.97 0 5.94 0 9 0 C9 3.3 9 6.6 9 10 C6.8480563 6.77208445 6.79913557 5.71599191 7 2 C4.69 2 2.38 2 0 2 C0 1.34 0 0.68 0 0 Z " fill="#371012" transform="translate(565,844)"/>
<path d="M0 0 C0.66 0 1.32 0 2 0 C2.2475 0.804375 2.495 1.60875 2.75 2.4375 C3.72238859 5.171081 3.72238859 5.171081 6.125 5.8125 C7.053125 5.9053125 7.053125 5.9053125 8 6 C7 7 7 7 3.4375 7.0625 C2.303125 7.041875 1.16875 7.02125 0 7 C0 4.69 0 2.38 0 0 Z " fill="#101F2D" transform="translate(546,869)"/>
<path d="M0 0 C0.99 0.495 0.99 0.495 2 1 C2 2.65 2 4.3 2 6 C3.65 5.67 5.3 5.34 7 5 C7 5.66 7 6.32 7 7 C7.99 7.33 8.98 7.66 10 8 C6.7 8 3.4 8 0 8 C0 5.36 0 2.72 0 0 Z " fill="#D37565" transform="translate(565,835)"/>
<path d="M0 0 C0 3 0 3 -1.25 4.6875 C-3 6 -3 6 -7 6 C-7 4.35 -7 2.7 -7 1 C-4 0 -4 0 0 0 Z " fill="#DA5B46" transform="translate(489,825)"/>
<path d="M0 0 C2.64 0 5.28 0 8 0 C8 0.33 8 0.66 8 1 C6.35 1.33 4.7 1.66 3 2 C2.67 5.3 2.34 8.6 2 12 C1.67 12 1.34 12 1 12 C0.855625 10.88625 0.71125 9.7725 0.5625 8.625 C0.21627965 5.17857953 0.21627965 5.17857953 -1 3 C-0.67 2.01 -0.34 1.02 0 0 Z " fill="#2A9D89" transform="translate(542,945)"/>
<path d="M0 0 C0 2.42829336 -0.08131253 4.8081333 -0.21875 7.23046875 C-0.26386719 8.03291016 -0.30898438 8.83535156 -0.35546875 9.66210938 C-0.40316406 10.49548828 -0.45085937 11.32886719 -0.5 12.1875 C-0.54769531 13.03248047 -0.59539062 13.87746094 -0.64453125 14.74804688 C-0.76227288 16.83207364 -0.88103811 18.91604253 -1 21 C-1.33 21 -1.66 21 -2 21 C-2.25427918 17.8765076 -2.47412319 14.75153179 -2.6875 11.625 C-2.76033203 10.73554688 -2.83316406 9.84609375 -2.90820312 8.9296875 C-2.96298828 8.07890625 -3.01777344 7.228125 -3.07421875 6.3515625 C-3.13182373 5.56604004 -3.18942871 4.78051758 -3.2487793 3.97119141 C-3.12563354 2.99545166 -3.12563354 2.99545166 -3 2 C-2.01 1.34 -1.02 0.68 0 0 Z " fill="#1F131B" transform="translate(372,354)"/>
<path d="M0 0 C3.3 0 6.6 0 10 0 C10 2.97 10 5.94 10 9 C9.67 9 9.34 9 9 9 C8.34 6.69 7.68 4.38 7 2 C4.69 1.67 2.38 1.34 0 1 C0 0.67 0 0.34 0 0 Z " fill="#2B090C" transform="translate(554,834)"/>
<path d="M0 0 C0.33 0 0.66 0 1 0 C1.0928125 1.0828125 1.0928125 1.0828125 1.1875 2.1875 C2.24456647 5.84657625 4.20550071 7.49211602 7 10 C4.625 10.1875 4.625 10.1875 2 10 C-0.4294516 6.3558226 -0.16179575 4.28758728 0 0 Z " fill="#D36350" transform="translate(375,732)"/>
<path d="M0 0 C0.99 0.33 1.98 0.66 3 1 C3 3 3 5 3 7 C2.34 7 1.68 7 1 7 C0.67 7.99 0.34 8.98 0 10 C0 6.7 0 3.4 0 0 Z " fill="#E05C44" transform="translate(221,237)"/>
<path d="M0 0 C0.33 0.99 0.66 1.98 1 3 C1.99 3.33 2.98 3.66 4 4 C3.67 5.32 3.34 6.64 3 8 C2.34 8 1.68 8 1 8 C0.67 8.66 0.34 9.32 0 10 C0 6.7 0 3.4 0 0 Z " fill="#0D1722" transform="translate(557,877)"/>
<path d="M0 0 C0.66 0.66 1.32 1.32 2 2 C1.9765625 5.0390625 1.9765625 5.0390625 1.625 8.625 C1.51414063 9.81351562 1.40328125 11.00203125 1.2890625 12.2265625 C1.19367188 13.14179688 1.09828125 14.05703125 1 15 C0.67 15 0.34 15 0 15 C-0.19390729 12.68802845 -0.37996367 10.3753971 -0.5625 8.0625 C-0.71912109 6.13083984 -0.71912109 6.13083984 -0.87890625 4.16015625 C-0.91886719 3.11730469 -0.95882812 2.07445312 -1 1 C-0.67 0.67 -0.34 0.34 0 0 Z " fill="#DE5C43" transform="translate(221,271)"/>
</svg>
